<svg id="Layer_1" data-name="Layer 1" xmlns="http://www.w3.org/2000/svg" viewBox="0 0 35.92893 57.32713"><defs><style>.cls-1{fill:#c9a582;}</style></defs><path class="cls-1" d="M30.3267,1.42236a1.411,1.411,0,0,0-.18288.24456,1.76871,1.76871,0,0,1-.56568.58694c-.24668.168-.3041.22755-.3041.32324s.04466.10846.31474.37428a1.55771,1.55771,0,0,1,.58268.96548,1.51055,1.51055,0,0,1-.12121.76557A6.2461,6.2461,0,0,1,28.5829,6.98978a10.57136,10.57136,0,0,1-.83575.75919c-.00213-.00425-.01914-.05954-.03615-.12759a1.10829,1.10829,0,0,0-.44659-.64011.71579.71579,0,0,0-.98674.3275.70127.70127,0,0,0-.05529.387v.26795L26.316,8.153a1.13826,1.13826,0,0,0,.45935.49975c.09995.04891.12334.051.43595.04465a3.57042,3.57042,0,0,1,1.39292.25307c.2318.0723.28921.09995.35514.168a.19954.19954,0,0,1,.08081.15311,1.14762,1.14762,0,0,1-.26583.51039c-.21053.28071-.38916.37215-.60608.31473a3.34428,3.34428,0,0,1-.37-.15949,2.82606,2.82606,0,0,0-1.45885-.28709c-.68476,0-.74855.02552-.89529.08932a.22389.22389,0,0,0-.16375.27433,2.83833,2.83833,0,0,0,.4636.95484,6.97934,6.97934,0,0,1,.61459,1.2398,1.71206,1.71206,0,0,0,.36364.67626,1.22686,1.22686,0,0,0,.52315.29772.95137.95137,0,0,1,.11271.0319.49685.49685,0,0,1-.07869.10846,2.41448,2.41448,0,0,0-.19564.30835,1.78927,1.78927,0,0,1-.1276.219,1.13253,1.13253,0,0,1-.32537-.25306.936.936,0,0,1-.17225-.319.32.32,0,0,0-.07656-.12122.24363.24363,0,0,0-.285-.03189c-.068.02764-.07231.03828-.09782.18714a1.38029,1.38029,0,0,1-.31049.80172c-.18076.1999-.17012.28071.06593.53378a3.70841,3.70841,0,0,1,.24456.28709,1.457,1.457,0,0,1,.202.43807c.01276.06805.02765.08719.10421.12335.18926.09357.32536.02764.387-.185a1.15178,1.15178,0,0,1,.27221-.49975c.16162-.185.20628-.1999.32749-.10845.13611.1042.14249.15524.05742.48486a1.9497,1.9497,0,0,0-.06592.85915,1.4986,1.4986,0,0,0,.236.56354c.11909.1595.08932.17651-.65924.39555-.29773.08719-.46573.10633-.54441.06592-.0638-.03615-.09995-.12972-.13185-.34663a.793.793,0,0,0-.29134-.53378c-.21054-.2318-.22542-.32962-.07231-.47423l.09783-.09144.01063-.185c.02127-.34239-.051-.521-.23818-.604a1.67893,1.67893,0,0,0-.28071-.0723l-.19139-.034-.12547.07443c-.1999.11484-.24243.16375-.24243.27859s.01276.10845.05529.15311c.051.051.0638.05317.185.04041.07231-.00638.168-.01914.21266-.02552.10633-.017.14248.017.14248.12759,0,.17013-.17863.268-.49124.268a.69207.69207,0,0,1-.68051-.47,1.2818,1.2818,0,0,1-.18927-.58482.64144.64144,0,0,1,.151-.42319.46326.46326,0,0,1,.31261-.24668c.21478-.07443.3764-.04041.42957.08931.02764.0638.02552.07018-.0319.12122-.05529.04678-.07443.051-.19778.0404l-.13822-.01275.01488.12121c.02765.22754.13185.302.37216.25944.23817-.0404.30835-.08293.38278-.2318a.4942.4942,0,0,0,.01063-.4721,2.87807,2.87807,0,0,1-.15949-.97611c-.01063-.25093-.02552-.47-.02977-.48486-.017-.04678-.185-.11058-.2956-.11058A2.17414,2.17414,0,0,0,23.83,12.7252c-.0638.04891-.18289.15524-.26583.23393a1.21859,1.21859,0,0,1-.92507.33813.7201.7201,0,0,1-.51463-.12335c-.19778-.151-.23818-.34876-.14674-.723.07869-.33387.04892-.49975-.10633-.58056a1.33128,1.33128,0,0,0-.28071-.06592,1.47757,1.47757,0,0,1-.90592-.4232,1.88673,1.88673,0,0,0-.21054-.1765.18978.18978,0,0,0-.22754.06592c-.08081.09357-.07443.22967.01914.404a.875.875,0,0,1,.08719.78259,2.38939,2.38939,0,0,0-.068.302c-.01063.11272-.00851.12547.051.185a.52835.52835,0,0,0,.25306.11909c.65286.19777.80173.25944.88679.3764a.41824.41824,0,0,1,.00425.35727,1.92641,1.92641,0,0,0-.05529.32537c-.02339.27008-.04891.34238-.15311.43383-.08507.07443-.12335.08719-.4721.16374a3.74774,3.74774,0,0,0-.90381.33388c-.25094.13184-.30835.19139-.30835.32749s.0404.1595.17438.22542a2.65571,2.65571,0,0,1,.55929.39129,1.187,1.187,0,0,0,.23818.17864c.12121.05742.19139.14248.336.40618a.96014.96014,0,0,0,.35727.41894.181.181,0,0,0,.185.02977c.15737-.04041.27221-.02977.32537.02552a.42145.42145,0,0,1,.08932.28709.25037.25037,0,0,0,.14248.25094.73626.73626,0,0,0,.35089.0404c.29985.00213.35727.02339.35727.14036s.05316.14673.12972.27433a1.79646,1.79646,0,0,1,.12334.22116c-.00425.00425-.1042.04679-.22117.09357s-.319.12973-.45083.185a1.116,1.116,0,0,1-.52952.134.63415.63415,0,0,1-.12335-.38917.5667.5667,0,0,1,.15737-.40192c.05317-.05742.06167-.08294.051-.13823a.33083.33083,0,0,0-.2318-.22329,5.42669,5.42669,0,0,1-.62947-.25945.47157.47157,0,0,1-.21053-.40405c0-.17013-.11271-.17225-.25094-.14461l-.06167.01276-.01276.268-.01276.26795-.10633.21479a.964.964,0,0,0-.151.50187.55189.55189,0,0,0,.202.41894,3.75807,3.75807,0,0,0,.44871.25944c.37428.1914.45083.25307.42319.34238a2.127,2.127,0,0,1-.2637.30623c-.13823.14036-.31474.33175-.39554.42532s-.21479.24243-.29773.32962a2.00233,2.00233,0,0,0-.50825.89317c-.14461.44871-.20628.621-.59758,1.70128-.56992,1.5673-1.11433,3.007-1.3036,3.43657a12.90305,12.90305,0,0,1-1.58644,2.40093c-.14248.1765-.26582.336-.27858.35514-.01063.017-.12972.17013-.26157.33813a12.87989,12.87989,0,0,0-1.26745,1.99474,9.14732,9.14732,0,0,0-.94846,3.22392c-.04678.33812-.134.957-.19139,1.37165a9.40246,9.40246,0,0,0-.14248,1.95647,9.49832,9.49832,0,0,0,.49124,2.89429,9.76072,9.76072,0,0,1,.4636,2.47961,7.73863,7.73863,0,0,1-.07018,1.54816c-.05317.3679-.38917,2.02026-.61671,3.0304a15.43228,15.43228,0,0,0-.48912,2.91343,16.78987,16.78987,0,0,0,.034,1.9671,19.37288,19.37288,0,0,0,.78684,3.63434c.13611.48912.23818.89742.22968.90593s-.33175.117-.71454.24243a3.86754,3.86754,0,0,0-.69114.25307c.00638.01488.04678.134.09144.26369a1.33214,1.33214,0,0,0,.09783.24031c.02977,0,2.37115-.77834,2.81561-.9357.25731-.09145.93782-.33813,1.50988-.54867,1.3355-.48911,2.02451-.72942,2.68376-.92932a9.22054,9.22054,0,0,0,3.158-1.34613A5.51493,5.51493,0,0,0,24.989,52.26919a4.06643,4.06643,0,0,0,.32111-.88466c.07868-.29773.28922-.957.31261-.98037s2.25419.57418,2.503.66988a.592.592,0,0,1,.4317.53165c0,.16162-.04253.24881-.22542.47848a6.43759,6.43759,0,0,0-.56567.82937,3.03828,3.03828,0,0,1-1.125,1.23768.68093.68093,0,0,0-.31048.27433,3.19814,3.19814,0,0,0-.20416.4955.80912.80912,0,0,0,.23393.24881,1.86283,1.86283,0,0,0,.60395-.31261,1.10019,1.10019,0,0,0,.18289-.2318.85654.85654,0,0,1,.49975-.42745,3.67532,3.67532,0,0,1,.48911-.03828,1.918,1.918,0,0,0,.9357-.19139,1.75383,1.75383,0,0,0,.91657-1.41206c.017-.11909.03615-.236.0404-.26157a.38907.38907,0,0,1,.117-.12121c.2552-.18289.25732-.404.00851-.68689l-.09782-.11271.15737-.21479.15524-.21479.017.453a16.28316,16.28316,0,0,1-.15524,2.76244c-.14035,1.24831-.14035,1.20365.0319,1.46522a1.2582,1.2582,0,0,1,.22754.58268,1.47987,1.47987,0,0,1-.08931.70178,1.99744,1.99744,0,0,0-.01914,1.36527c.0723.30836.08506.336.15949.38492.04679.0319.05955.0319.14248,0l.08932-.034.02552-.1595c.01488-.08719.05529-.25732.08931-.3764a1.3445,1.3445,0,0,0,.04466-.92082,1.67392,1.67392,0,0,1-.12121-.76557,2.0334,2.0334,0,0,1,.18714-.82937,1.43158,1.43158,0,0,0-.03615-1.05692.96376.96376,0,0,1-.07443-.45083c-.034-.63373-.0638-2.03941-.05742-2.61784l.00638-.57418.14035.202c.20841.29773.202.268.09145.42532-.15311.22117-.14886.29985.02977.59545a.58739.58739,0,0,1,.11271.37215,1.79489,1.79489,0,0,0,.151.62522,3.1324,3.1324,0,0,0,.621.74431,1.62011,1.62011,0,0,0,1.33338.33387.72568.72568,0,0,1,.34025.01914.874.874,0,0,1,.43382.44233,1.20528,1.20528,0,0,0,.44021.46785.71013.71013,0,0,0,.43595.00425.66235.66235,0,0,0,.08293-.55929.892.892,0,0,0-.134-.15737,4.36349,4.36349,0,0,0-.69965-.49762c-.10633-.051-.13185-.07868-.49337-.58906a15.47114,15.47114,0,0,1-.9761-1.48012.51443.51443,0,0,1,.25944-.69964,20.94729,20.94729,0,0,1,2.14148-.57418c.3041-.07018.336-.06593.45722.06167.05529.05954.0723.1042.10208.26369a5.26462,5.26462,0,0,0,2.41368,3.44721,7.48593,7.48593,0,0,0,2.05216,1.05054c.39555.134,1.3355.42319,2.52.7762,1.88842.56142,2.37328.71666,4.05116,1.30148.61884.21478,1.22067.41893,1.33976.45509.117.034.22754.068.24881.07443.02764.0085.051-.04041.12546-.26158.04892-.14886.09357-.28283.09783-.29772a8.52682,8.52682,0,0,0-.9761-.34663c-.54229-.17651-1.80974-.59332-2.81774-.9272a9.63373,9.63373,0,0,1-1.90968-.68051c-.17013-.17013-.21479-.36577-.24669-1.125-.02339-.59331,0-1.70978.05529-2.45621a24.06119,24.06119,0,0,1,.87191-4.9337c.06592-.22754.22967-.7443.36365-1.14836.655-1.96284,1.18026-3.713,1.54816-5.14635a23.20594,23.20594,0,0,0,.62947-5.94383,8.19243,8.19243,0,0,0-.81874-3.9342,8.04512,8.04512,0,0,0-.74643-1.23342,7.94052,7.94052,0,0,1-.45935-.68051c-.017-.03615-.09782-.17438-.17651-.30836a11.58631,11.58631,0,0,1-.64648-1.327,9.62325,9.62325,0,0,1-.51251-1.7672,14.81309,14.81309,0,0,0-1.1271-3.30685c-.16587-.3913-.34875-.81236-.40405-.9357a3.77967,3.77967,0,0,1-.14673-.39342,3.03733,3.03733,0,0,0-.9591-1.37166c-.36365-.29347-.42319-.39129-.34025-.55078.0638-.12547.20415-.21692.54228-.353.34026-.13823.44233-.19777.49975-.29347a.22454.22454,0,0,0-.01276-.27007,2.18411,2.18411,0,0,1-.2318-.9995.65182.65182,0,0,0-.0404-.23818.38474.38474,0,0,0-.13185-.017c-.13823,0-.185.04678-.23392.2403-.07231.2956-.20841.39129-.65287.46147a1.752,1.752,0,0,1-.29347.0319.84.84,0,0,1-.00638-.32537c.01276-.04253.02552-.04678.18714-.04678.28709-.00213.40193-.08294.64648-.45722a3.3372,3.3372,0,0,1,1.0548-.9676c.26582-.16375.32324-.22967.29985-.34238-.04041-.18289-.58056-.44021-1.33337-.63373a2.43532,2.43532,0,0,1-.36791-.117c-.07018-.04678-.10207-.11271-.18076-.37641-.19989-.672-.07018-.86127.74006-1.08456.31686-.08719.43382-.14035.4721-.21053.0404-.07443.02127-.1914-.05529-.353a.81771.81771,0,0,1,.01063-.83575,1.28371,1.28371,0,0,0,.09783-.2403.23119.23119,0,0,0-.24669-.28284.92513.92513,0,0,0-.22542.16374,1.31953,1.31953,0,0,1-.92507.43383c-.25306.02127-.3998.1361-.42957.33175a1.19438,1.19438,0,0,0,.0638.44871.52368.52368,0,0,1-.353.69752,2.0964,2.0964,0,0,1-.70816-.01063,1.03712,1.03712,0,0,1-.5678-.31686,2.35019,2.35019,0,0,0-1.28658-.66775c-.12973-.00851-.15737-.00426-.2233.0404-.11909.08081-.14673.19352-.14886.61246a1.31974,1.31974,0,0,1-.1042.672,1.70571,1.70571,0,0,0-.08081.621.31837.31837,0,0,0,.16162.28284.66486.66486,0,0,0,.52952,0c.12973-.04892.13185-.051.13185-.12973s-.05529-.151-.20628-.17225c-.15524-.02127-.20841-.07018-.18926-.17651.02126-.11058.10633-.14886.29134-.134a.64832.64832,0,0,1,.45509.21053c.12759.14248.14673.21053.13185.48273a1.09257,1.09257,0,0,1-.52527.9995.61735.61735,0,0,1-.34026.05529.47682.47682,0,0,1-.44233-.17225c-.09995-.17438-.01276-.24456.25519-.1999s.18714.02127.21479.01276c.0957-.02339.12972-.18927.06593-.32112-.04466-.09357-.134-.134-.387-.17437a.58088.58088,0,0,0-.33175.00425.25174.25174,0,0,0-.185.134.74418.74418,0,0,0-.1042.4955c0,.28071.00426.25094.04041.28284a.35283.35283,0,0,1,.09995.25519.691.691,0,0,1-.12547.18076,1.38118,1.38118,0,0,0-.31474.6401c-.02764.185-.07018.29135-.12759.30836a1.986,1.986,0,0,1-.6231-.10633,2.2447,2.2447,0,0,1-.61458-.22542c-.017-.02552.00213-.07443.08081-.19777a1.82963,1.82963,0,0,0,.15524-.3275,1.12238,1.12238,0,0,0,.0553-.46147,1.47532,1.47532,0,0,0-.06167-.51038c-.1042-.37-.08932-.48061.07868-.572.11058-.05955.16588-.034.29772.12972a1.11163,1.11163,0,0,1,.23606.40192c.1042.28709.14248.3275.31048.3275s.11271-.02127.14036-.14886a.33929.33929,0,0,1,.06167-.1276.94119.94119,0,0,0,.10633-.19352.48336.48336,0,0,1,.25944-.29347.14759.14759,0,0,0,.08507-.06379.71836.71836,0,0,1,.09356-.11909.34239.34239,0,0,0,.0319-.41256.42619.42619,0,0,0-.10207-.15312,1.03861,1.03861,0,0,1-.21054-.52739c-.03615-.30836-.09782-.3913-.29347-.39342-.134-.00213-.18076.04253-.23817.22754a.4855.4855,0,0,1-.15312.25732c-.05954.05954-.134.14035-.16587.17863-.068.08081-.12973.08719-.18076.01489-.02127-.02977-.10846-.14674-.19352-.26157-.14036-.18714-.23818-.37216-.21266-.39768s.05954-.00212.11909.01064a.56246.56246,0,0,0,.54441-.1914,1.40283,1.40283,0,0,0,.25732-.49975,14.34344,14.34344,0,0,1,.75281-1.52051c.37428-.68476.42745-.80385.42745-.94846s-.02552-.17013-.12335-.219a1.80585,1.80585,0,0,0-.68689-.10208,4.25558,4.25558,0,0,0-2.016.39768c-.24031.11271-.28284.12121-.35514.07868a4.18314,4.18314,0,0,1-.45934-.58269c-.0957-.14248-.17651-.34663-.151-.38491a5.12869,5.12869,0,0,1,1.02076-.3998,2.38989,2.38989,0,0,1,.68689-.07018c.4636-.01489.48274-.017.59758-.07231a1.03992,1.03992,0,0,0,.46147-1.35889.66231.66231,0,0,0-.62309-.36577c-.28284,0-.55079.17863-.73155.62734a.84534.84534,0,0,1-.10208.20415,5.95659,5.95659,0,0,1-.772-.70815,6.9907,6.9907,0,0,1-1.40143-2.02452,2.14311,2.14311,0,0,1-.22967-.78471c-.02339-.39555.134-.70816.65712-1.31.17013-.19565.21478-.27221.21478-.38279s-.05741-.16588-.2722-.27646a1.48529,1.48529,0,0,1-.56567-.555c-.15737-.26157-.22755-.33175-.32325-.33175s-.09782.01914-.15311.06593Zm.302.74006a.85276.85276,0,0,1,.27433.33387c.034.09145.034.0957-.02127.20416a1.81069,1.81069,0,0,1-.22754.30623l-.17438.19564-.19352-.202c-.21266-.22117-.27646-.319-.27433-.42107a.64533.64533,0,0,1,.32537-.43382.23434.23434,0,0,1,.29134.017Zm.1276,3.394a5.24167,5.24167,0,0,1,.302.61033c.14886.35727.24243.45722,1.65449,1.77784l.34451.32111-.07869.01489a5.59208,5.59208,0,0,0-1.10582.32537c-.202.0723-.38066.12972-.39768.12972s-.01275-.04041.02765-.16588a1.18713,1.18713,0,0,0,.05742-.4721A1.11692,1.11692,0,0,0,31.49,7.58736a4.3534,4.3534,0,0,0-.21053-.46785c-.07656-.14674-.22968-.43808-.34026-.64861-.32324-.61884-.3998-.689-.56993-.54016a5.90858,5.90858,0,0,0-.68689,1.008,2.0698,2.0698,0,0,0-.27858,1.50562c.04041.20416.04041.21692.00638.24244-.04678.034-.07656.02764-.51038-.134a4.28224,4.28224,0,0,0-.84426-.25306A.28527.28527,0,0,1,27.93429,8.27a.791.791,0,0,1,.14673-.22116.61709.61709,0,0,1,.151-.11059,12.76186,12.76186,0,0,0,1.40568-1.43545c.07655-.11058.29559-.487.487-.83575l.34663-.63372.09783.18714c.05529.10207.13822.25306.18714.336Zm.285,2.0628a1.17412,1.17412,0,0,1,.03615.83362c-.10633.28921-.42107.64436-.56993.64436a.59627.59627,0,0,1-.39129-.22542.9331.9331,0,0,1-.26795-.45084.90792.90792,0,0,1-.03828-.38278c.01488-.34664.06167-.44659.538-1.1994l.12759-.1999.25094.42744C30.86686,7.30027,31.00721,7.54908,31.04124,7.61926Zm-4.00863-.22117c.11909.05742.18927.19564.22542.45084.0319.22329.01276.27858-.117.34025a.3121.3121,0,0,1-.42745-.22329.5301.5301,0,0,1,.051-.55292C26.837,7.34067,26.90927,7.33642,27.03261,7.39809Zm7.139-.00213a.63106.63106,0,0,1-.01914.72092.31379.31379,0,0,1-.43808.02339.18361.18361,0,0,1-.05955-.16375,1.16491,1.16491,0,0,1,.10846-.46572A.30539.30539,0,0,1,34.17159,7.396ZM29.83121,9.40985A1.01118,1.01118,0,0,1,30.18,10.169a.973.973,0,0,1-.27433.51676,1.76224,1.76224,0,0,0-.185.23818c-.08507.17013-.18289.21266-.30836.13185-.034-.0234-.185-.1595-.336-.30411-.20628-.1999-.27008-.27433-.27008-.31473s.07868-.13611.27858-.35089a2.02756,2.02756,0,0,0,.45722-.60821c.07656-.1999.134-.21266.28922-.068Zm1.52051-.0319a.76148.76148,0,0,1,.09995.18714,1.00744,1.00744,0,0,0,.34025.44871c.18289.15949.28922.2956.28922.3679-.00213.13185-.16374.34026-.49549.63373l-.14248.12759-.22968-.23818a1.41716,1.41716,0,0,1-.42106-.6082.83672.83672,0,0,1,.25731-.8315c.14674-.151.2233-.17225.302-.08719Zm-4.42118.79109a4.31906,4.31906,0,0,1,.98248.33388c.75707.36364,1.20153.83787,1.26532,1.34826l.017.12547-.2318-.21054a3.98953,3.98953,0,0,0-.84639-.61671,1.05972,1.05972,0,0,0-.57205-.13823,1.32,1.32,0,0,0-.874.37c-.08294.06592-.15524.11271-.16375.1042-.01914-.02339-.64648-1.17813-.66349-1.227a.10056.10056,0,0,1,.07655-.14036,3.7681,3.7681,0,0,1,1.01014.051Zm8.21077-.03828c.00425.00425-.15737.319-.35939.69965l-.3679.69327-.09783-.09357a1.51729,1.51729,0,0,0-.41894-.29772,1.23532,1.23532,0,0,0-1.22492.07868,2.46909,2.46909,0,0,0-.71879.59332.22145.22145,0,0,1-.04253.13185,1.18053,1.18053,0,0,1-.28071.32962c-.034,0-.01914-.07231-.01276-.22117a.78539.78539,0,0,1,.202-.54866c.04678-.051.14461-.16587.219-.25732a3.23327,3.23327,0,0,1,1.90968-1.04841,3.12,3.12,0,0,1,.88679-.07656c.16374.00639.302.01276.30622.017Zm-4.42544.84639a2.49888,2.49888,0,0,1,.49763,1.11221A3.06664,3.06664,0,0,1,31.222,13.159a1.24761,1.24761,0,0,1-.44871.62947.53334.53334,0,0,1-.453.0319.80727.80727,0,0,1-.5593-.53377,2.01027,2.01027,0,0,1-.04253-.64861,2.84045,2.84045,0,0,1,.134-1.08669,1.65152,1.65152,0,0,1,.39767-.61033c.19352-.17864.27007-.17226.46572.03615Zm-2.87728.5763a1.966,1.966,0,0,1,1.00588.957,1.74505,1.74505,0,0,1,.11909,1.34188,1.117,1.117,0,0,1-1.125.60183c-.37428-.10208-.24881-.17438-.28922-.30836-.08293-.28709.02127-.47636.2637-.47636s.151.05529.22117.20416c.06592.13822.11484.17863.22542.17863a.24432.24432,0,0,0,.27007-.25944.73742.73742,0,0,0-.37428-.54867,1.38026,1.38026,0,0,0-.45934-.08506c-.14674,0-.10208-.00638-.10208-.01276a.75463.75463,0,0,1,.06593-.10633.8659.8659,0,0,0,.16162-.41681c.01063-.12334.00638-.14035-.04466-.202a.19567.19567,0,0,0-.22329-.0723.28922.28922,0,0,0-.07656.12972c-.08506.25944-.202.29772-.38066.1276A.56894.56894,0,0,1,27.056,11.713.64147.64147,0,0,1,27.83859,11.55345Zm5.82687-.01063a.83442.83442,0,0,1,.353.37215.37134.37134,0,0,1,.0553.26158.62878.62878,0,0,1-.04679.19564,1.22344,1.22344,0,0,1-.31686.33387c-.05529.02978-.06593.02765-.117-.0085a.533.533,0,0,1-.10846-.17013.85007.85007,0,0,0-.08293-.16375.15232.15232,0,0,0-.21692.02765c-.07017.07018-.06167.07868-.06167.17864a.82079.82079,0,0,0,.13185.436.55858.55858,0,0,0,.12122.07443c.05954.02552.06379.0319.0319.04466a2.37984,2.37984,0,0,1-.29347.04465,1.33316,1.33316,0,0,0-.34239.07443.70176.70176,0,0,0-.36365.51464.24384.24384,0,0,0,.26157.29347c.17864,0,.15525-.03615.22755-.17863a.57689.57689,0,0,1,.11483-.16163.27011.27011,0,0,1,.37854.10846.531.531,0,0,1-.19778.58694c-.34876.20415-1.00375-.0957-1.22491-.56142a.74.74,0,0,1-.07444-.40618,1.857,1.857,0,0,1,.29135-1.09945,1.96276,1.96276,0,0,1,.75069-.71241.78111.78111,0,0,1,.72942-.08506ZM21.193,12.13614c.25731.03615.33175.09357.32537.25306a1.07965,1.07965,0,0,1-.06167.41044c-.02127.017-.08082.017-.22542-.00213-.37428-.04678-.42107-.08506-.42107-.32749s.06592-.38917.19139-.36365c.02978.00638.11484.01914.1914.02977Zm18.79908-.00851c.09144.04679.1276.134.1276.30836s-.03616.26157-.13185.31048a1.57327,1.57327,0,0,1-.49762.05742c-.04466-.017-.07231-.12972-.07231-.2956,0-.25306.03828-.302.28284-.34663a.82209.82209,0,0,0,.1595-.04254c.04891-.02977.05954-.02764.13184.00851Zm-15.2179.71666a.20152.20152,0,0,1,.034.10208,1.13975,1.13975,0,0,0,.04678.20841c.07443.25519.0638.26795-.3275.353a1.17728,1.17728,0,0,0-.891.73793c-.03615.09782-.05742.12972-.09782.14035a.23945.23945,0,0,1-.22329-.11058c-.02765-.06167.00638-.17013.1361-.41468a2.28384,2.28384,0,0,1,.99737-.96548C24.65083,12.78688,24.72526,12.77412,24.77417,12.84429Zm11.624-.01488a2.92849,2.92849,0,0,1,.92719.78471,1.43158,1.43158,0,0,1,.30623.58056c0,.16162-.2318.26583-.29985.13185-.0085-.017-.05529-.11271-.10208-.21266a1.04006,1.04006,0,0,0-.81023-.604c-.39342-.07443-.40618-.08507-.33813-.32324a1.17312,1.17312,0,0,0,.04041-.22755c0-.15311.09144-.19564.27645-.12972Zm-13.44007.91443a.83985.83985,0,0,1-.13185.336l-.04891.05954-.06592-.04891a.99932.99932,0,0,1-.13611-.134c-.0404-.04678-.11058-.12547-.15737-.17651l-.08506-.08931h.62522Zm15.59643-.02764c-.19564.33387-.38279.47423-.48273.36152a1.51143,1.51143,0,0,1-.12122-.37c0-.05317.14036-.017.31049-.017s.30622.00638.29347.02551ZM29.727,13.999c.19352.16163.3126.30411.3126.36791s-.07868.18714-.30835.387c-.2637.22967-.31261.29347-.32324.42319-.01276.13185.03828.20415.2403.35514a1.01518,1.01518,0,0,1,.285.30623c.14673.22542.18926.36152.14248.4721a.26093.26093,0,0,1-.05955.09357,1.54191,1.54191,0,0,1-.30623.0319c-.151.00851-.4721.04466-.71241.08081-.23817.034-.43807.06167-.44233.05742a.4196.4196,0,0,1,.04466-.11271,1.97231,1.97231,0,0,0,.15524-1.41419c-.068-.2318-.05954-.25306.13823-.38916a1.811,1.811,0,0,0,.56355-.6635c.03615-.06592.07655-.11271.09782-.11271a.58341.58341,0,0,1,.17225.117Zm1.76932.00639a.41915.41915,0,0,0,.16375.20627,1.35208,1.35208,0,0,1,.47635.772,1.59556,1.59556,0,0,1,.02127.49124c-.00851.18289-.01489.3679-.01276.41043a2.339,2.339,0,0,0,.18714.56355.51735.51735,0,0,1,.04678.10846c0,.01063-1.52689-.16162-1.55029-.18076a1.43415,1.43415,0,0,1,.1276-.46785,1.50549,1.50549,0,0,1,.41043-.44021.34722.34722,0,0,0,.16162-.29134c0-.117-.01275-.11271-.08719-.19777a1.57,1.57,0,0,0-.24455-.20628c-.21479-.14461-.3913-.319-.3913-.38917a1.19871,1.19871,0,0,1,.60608-.49762c.02765.00425.05529.04253.08507.11909Zm7.56217.09782a.95125.95125,0,0,1,.07656.25094.22516.22516,0,0,1-.04041.18714c-.0723.1042-.16374.12972-.45934.12334l-.24456-.00638.1361-.202a2.01848,2.01848,0,0,1,.44658-.48911c.04679,0,.051.06167.08507.1361Zm-16.93194-.01063c.07868.05741.11909.11058.24243.33387l.0957.17438-.068.01276c-.03615.0085-.14673.01914-.24668.02764-.17438.01064-.185.01064-.24669-.04465a.35846.35846,0,0,1-.09357-.35089.369.369,0,0,1,.09145-.21691c.0319-.02127.15524.01488.22541.0638Zm4.38078-.00426a.36275.36275,0,0,1,.19352.27433c0,.09357-.09357.1999-.21478.28709l-.05955.04041-.12547-.10421c-.16162-.1361-.18714-.1999-.14248-.37428.04466-.16587.08294-.21053.17864-.19352a.60208.60208,0,0,1,.17012.07018Zm8.18951.00213a.28586.28586,0,0,1,.09357.32111c-.05529.13185-.25306.29985-.31048.26583a.78277.78277,0,0,1-.24031-.22967.37189.37189,0,0,1,.17651-.38492.18422.18422,0,0,1,.28071.02765Zm-11.44745.706a1.83345,1.83345,0,0,1,.453.46147c.25731.37215.35727.772.2403.95909a.28546.28546,0,0,1-.3764.06167,7.12766,7.12766,0,0,1-.58482-.7039c-.15949-.26582-.22754-.521-.16374-.61884a.54.54,0,0,1,.37-.168.28775.28775,0,0,0,.06167.00851Zm7.41756.0723a.40011.40011,0,0,1,.168.30411c-.00213.09782-.04041.16587-.236.42531l-.117.15312-.1595-.185c-.185-.21266-.25094-.33813-.2318-.43808.03615-.18714.28922-.37428.44446-.32962a.49985.49985,0,0,1,.13185.07017Zm7.2687-.04466a.70879.70879,0,0,1,.13822.08719.157.157,0,0,1,.068.15312,1.68952,1.68952,0,0,1-.47848.891c-.31686.35514-.336.37215-.42107.37215a.32875.32875,0,0,1-.25732-.12547.92089.92089,0,0,1,.10846-.7124,2.06722,2.06722,0,0,1,.5274-.655.40057.40057,0,0,1,.31474-.01063Zm-16.01538.21692c.39555.051.50613.1042.50613.25093s-.0723.17651-.26795.08507c-.12121-.05742-.134-.05955-.4636-.05317a1.00409,1.00409,0,0,0-.387.03615,1.16177,1.16177,0,0,0-.17438.19778c-.15524.202-.26582.302-.336.302s-.08931-.034-.14886-.08931a1.7595,1.7595,0,0,1-.30623-.37641,1.12028,1.12028,0,0,1,.47-.19352,2.58182,2.58182,0,0,0,.336-.09995,1.31442,1.31442,0,0,1,.772-.05954Zm17.823.04253c.08506.02977.24881.07868.36577.10845.36365.09145.37641.0957.42745.14674.08293.08294.06593.12972-.11271.302-.17226.16588-.27221.24031-.32324.24031s-.14886-.12334-.29134-.27433l-.2637-.27221-.22967-.01488a1.1946,1.1946,0,0,0-.58907.07443c-.11483.051-.168.0404-.202-.04466-.05317-.12759.034-.22117.24881-.26582a1.79948,1.79948,0,0,1,.96972,0Zm-11.48573.08931c.07443.0638.10208.16375.10208.35514a1.74852,1.74852,0,0,1-.11271.60608.26538.26538,0,0,1-.37854.1361c-.11909-.07017-.17651-.29347-.16375-.62309a.43894.43894,0,0,1,.219-.4402c.11271-.08507.13611-.09357.20841-.08507a.283.283,0,0,1,.12547.051Zm4.64873-.02552a.44712.44712,0,0,1,.31261.319.72763.72763,0,0,1,.01276.36152c-.0404.37641-.12759.50188-.32324.45935-.20628-.04679-.28709-.18076-.32112-.5274-.03615-.39129-.00212-.57418.117-.62309.06592-.02552.07868-.02552.202.01063Zm6.39467.61459a.60863.60863,0,0,1,.34025.69965c-.034.08506-.14461.185-.202.185s-.20841-.19139-.23393-.31048c-.04678-.20841-.13823-.25732-.25732-.13823a.18962.18962,0,0,0-.06167.168.69278.69278,0,0,0,.0319.20841.76826.76826,0,0,1,.0319.15524c0,.04041-.00851.04679-.04678.03828a1.62911,1.62911,0,0,0-.168-.02552c-.11484-.01488-.12122-.01275-.17438.05317-.08081.0957-.07443.16587.03828.3275a1.4777,1.4777,0,0,1,.09569.151c0,.0234-.15524.00851-.22967-.02126a.35991.35991,0,0,1-.219-.24243.97419.97419,0,0,1,.23393-1.0229.77112.77112,0,0,1,.82086-.22541Zm-17.19776.03615a.88049.88049,0,0,1,.64223.87616c0,.42319-.04466.32111-.15524.436a.50266.50266,0,0,1-.25094.14886c-.01276-.00425.017-.0638.0638-.134.10207-.151.11271-.23392.03615-.31473-.06593-.07231-.12547-.08507-.27433-.06167-.16588.02551-.21054-.00213-.16375-.10633A.71916.71916,0,0,0,22.033,16.4c0-.21266-.03615-.27007-.15737-.25944-.07018.00638-.07868.01489-.10846.10208a1.4958,1.4958,0,0,1-.068.15949.73035.73035,0,0,0-.04678.12335c-.034.14248-.12759.16374-.26582.06167a.36477.36477,0,0,1-.08719-.45722C21.43542,15.76836,21.69912,15.6599,22.10317,15.79813Zm2.64548.32962a.26337.26337,0,0,1,.12334.23818c0,.10633-.04253.14674-.134.117a1.29774,1.29774,0,0,0-.16162-.03828c-.10208-.017-.17226-.0723-.17226-.13822a.32383.32383,0,0,1,.09995-.21054.31118.31118,0,0,1,.24456.0319Zm11.72178.01276a.247.247,0,0,1-.00425.25732.38279.38279,0,0,1-.14248.05742A.57135.57135,0,0,0,36.16,16.519l-.05742.04254-.01488-.07656a.45192.45192,0,0,1,.04678-.31048.25045.25045,0,0,1,.21479-.07869c.068-.00212.0957.00851.12121.04466Zm-11.03489.16375a.74092.74092,0,0,1,.37853.63373c.00426.11909-.00212.14248-.0404.168-.03828.02765-.051.02339-.1276-.04253a.821.821,0,0,1-.151-.19778,2.04077,2.04077,0,0,1-.1914-.62309A.33065.33065,0,0,1,25.43554,16.30426Zm10.18-.0085c.02977.06379-.00425.18288-.1361.49974-.0957.22542-.16162.31049-.25732.33175a.08532.08532,0,0,1-.1042-.034c-.05317-.0638-.04891-.11271.02552-.34026a.73743.73743,0,0,1,.285-.44233C35.55174,16.2277,35.58364,16.22558,35.61554,16.29576Zm-12.25981.35088a.25887.25887,0,0,1,.05955.39555c-.11058.11058-.05955.04678-.11909.02977a.18383.18383,0,0,1-.151-.151c-.017-.28709.04891-.37428.21053-.27433Zm14.3779.05742a.352.352,0,0,1,.02339.24668c-.04253.09357-.17863.12973-.236.06168a.2266.2266,0,0,1,.0404-.32112C37.62092,16.65728,37.71236,16.66365,37.73363,16.70406Zm-13.2827.15312c.06592.07443.07018.1042.034.25094-.01276.05741-.0319.1361-.0404.17863-.02552.10633-.08507.12972-.27646.10633a.32227.32227,0,0,1-.21266-.07868c-.05317-.051-.06167-.07443-.06167-.17651a.46129.46129,0,0,1,.13185-.32324.36947.36947,0,0,1,.42531.04253Zm12.40229-.07443a.32178.32178,0,0,1,.18289.25944c.04678.22754-.02552.31474-.29986.353-.23179.0319-.27858-.02126-.30622-.33387-.01277-.15737-.01064-.17438.02977-.21053a.65453.65453,0,0,1,.285-.0957A.29741.29741,0,0,1,36.85322,16.78275Zm-7.18789.09569c.017.02765-.10633.20841-.15311.22329-.051.017-.117-.0085-.24881-.08931-.10846-.068-.10633-.07656.04041-.12334a.78.78,0,0,1,.36152-.01064Zm1.9586.00425c.15311.03828.151.03616.08293.10633a.33224.33224,0,0,1-.24243.12547c-.08294,0-.09357-.02551-.17651-.1042l-.10845-.1042.0723-.02127A.81459.81459,0,0,1,31.62393,16.88269Zm-6.53077.04466a1.35761,1.35761,0,0,0,.10633.20841.67534.67534,0,0,1,.09782.219c0,.08081-.11271.19352-.22967.22967-.07868.02339-.09357.02127-.13185-.01276a.28614.28614,0,0,1-.05529-.29134,1.68685,1.68685,0,0,1,.18289-.3998c.01914,0,.02126.02127.02977.04678Zm5.52914.068a.69157.69157,0,0,1,.24669.27434c0,.04891-.05955.09357-.134.17012-.17864.18714-.29347.21054-.46147.0957a.42649.42649,0,0,1-.1999-.28284c0-.08294.13185-.236.30623-.28921A.26208.26208,0,0,1,30.6223,16.9954Zm5.34626.08081a1.31716,1.31716,0,0,1,.09144.18289.47509.47509,0,0,1-.02339.31261c-.07018.08506-.32537-.00851-.39129-.14674-.04466-.09357-.02765-.1361.11271-.29559a.67365.67365,0,0,0,.10845-.14461c0-.04679.03828-.01064.10208.09144Zm-2.71566.13611c.11271.051.12121.05954.08931.08506a.26759.26759,0,0,1-.25519.04253c-.07443-.03828-.14673-.15311-.10846-.168a.37923.37923,0,0,1,.27433.04041Zm-4.32762.08081c.04253.04678.04678.06592.02765.11483-.034.08719-.07231.12122-.20841.18289-.10208.04466-.134.051-.19565.034-.07655-.02127-.168-.09145-.168-.12973a.38221.38221,0,0,1,.11058-.18288.31065.31065,0,0,1,.27008-.08294c.09357.00425.12547.017.16375.0638Zm3.43019-.02978c.0957.04679.19352.15525.19352.21266s-.10845.14036-.18714.1595a.25124.25124,0,0,1-.11909-.01063.93939.93939,0,0,1-.302-.24456.3881.3881,0,0,1,.09569-.09145A.26213.26213,0,0,1,32.35547,17.26335ZM23.343,17.593c.05742.09144.05529.25731-.00425.28709-.034.01914-.05529.017-.0957-.01064a.35307.35307,0,0,1-.11058-.42106l.02552-.08507.0723.08294a1.13569,1.13569,0,0,1,.11271.14674Zm14.48-.12547a.4612.4612,0,0,1,.02127.14461c0,.15737-.15737.32324-.26582.28071-.04679-.017-.04254-.20841.01063-.30836a.3897.3897,0,0,1,.19777-.17225C37.7953,17.41222,37.81231,17.43773,37.82294,17.46751Zm-10.50536.09357c.05741.05741.05316.08506-.02552.20415a.36389.36389,0,0,1-.31261.1999c-.12334,0-.25519-.0723-.22755-.17863.0234-.09145.11271-.15737.28709-.21266.202-.0638.22542-.06593.27859-.01276Zm2.42644.0319c.04678.02977.08293.07018.08293.09144,0,.03828-.09994.11484-.19777.151a.89033.89033,0,0,1-.38917.00213l-.05741-.0234.1042-.10845C29.48457,17.50153,29.57389,17.48027,29.744,17.593Zm4.13409-.02765c.15737.05742.27646.19777.24456.285a.20189.20189,0,0,1-.17651.11484.41205.41205,0,0,1-.34663-.28709C33.574,17.53343,33.674,17.493,33.87811,17.56533Zm-2.26907.11058.14036.13611-.09358.02552c-.20415.05529-.521-.03616-.521-.14887s.11909-.14886.24031-.14886S31.47932,17.55044,31.609,17.67591Zm3.34939-.00425a.0894.0894,0,0,1,.03615.08081.10038.10038,0,0,1-.0638.0957c-.09145.04678-.16162.0404-.21053-.02339-.05955-.07656-.05742-.15312.00425-.17651A.37892.37892,0,0,1,34.95843,17.67166Zm-13.92494.04891c.20628.07231.28709.1595.28709.31261,0,.26582-.08081.3594-.22542.26157a.32776.32776,0,0,0-.10207-.05316.61352.61352,0,0,1-.134-.05317.25974.25974,0,0,1-.16375-.30835c.017-.12335.07656-.21266.14248-.21266a.5529.5529,0,0,1,.19565.05316Zm18.00374.02339a1.31051,1.31051,0,0,1,.18927.47636c.03828.20841-.00426.44659-.0872.49124-.0319.017-.15524-.02551-.59757-.20627-.30836-.12335-.56355-.22755-.56568-.2318a.29134.29134,0,0,1,.0553-.09995,2.0713,2.0713,0,0,0,.10633-.17864.68071.68071,0,0,1,.22754-.26582c.05529-.03615.09783-.03828.34876-.0319.22542.00851.29134.017.32324.04678Zm1.1037-.034a.30161.30161,0,0,1,.08507.24668c0,.117-.07018.20416-.25945.27859a.89137.89137,0,0,0-.21053.10845l-.05954.04892-.0234-.08082c-.08719-.30623-.017-.47848.23393-.58694A.2869.2869,0,0,1,40.14093,17.70994Zm-7.00287.05742a2.53913,2.53913,0,0,1,.25094.32324c.01488.02552-.01489.02764-.17226.01914-.19139-.01276-.43382-.08294-.43382-.1276s.034-.068.07656-.12547c.11909-.16374.17863-.18288.27858-.08931Zm-5.17613-.01276a.61226.61226,0,0,1,.18715.17225c.017.02977.00425.04466-.06593.08081a.77437.77437,0,0,1-.42107.08932l-.09144-.01489.08294-.12972c.08506-.13185.17863-.22116.2318-.22116A.10467.10467,0,0,1,27.96193,17.7546Zm7.66.36152c.09995.02764.25094.17013.24031.22542-.00851.05529-.1595.12121-.27221.12121s-.11909-.017-.15736-.0404a.598.598,0,0,1-.18289-.23393c0-.04041.0404-.03828.09144-.05316.04891-.01489.1-.02978.11058-.0319a.28983.28983,0,0,1,.17013.01276Zm-10.02476.02339c.04678.01276.08294.034.08294.04678a.484.484,0,0,1-.17651.2233.37184.37184,0,0,1-.32324.01276c-.08932-.03616-.11058-.08082-.07231-.151A.4295.4295,0,0,1,25.59716,18.13951Zm.9357.07443a.49635.49635,0,0,1,.10421.07018.93.93,0,0,1-.31687.14035c-.10633.017-.12121-.01063-.0638-.12334C26.34147,18.131,26.36912,18.1225,26.53286,18.21394Zm8.0683-.04466c.04466.01914.16587.19565.14886.22117-.02127.034-.151.02339-.27433-.02127-.16375-.06167-.17863-.08931-.09357-.15737a.228.228,0,0,1,.219-.04253Zm-1.6311.25519c.47636.0957,1.05479.22755,1.75657.40406a4.3839,4.3839,0,0,1,.75919.23392,5.74094,5.74094,0,0,1,2.956,3.08144c.05954.14035.29347.81023.51888,1.48861A23.43736,23.43736,0,0,0,40.226,26.933a12.41662,12.41662,0,0,0,1.08243,1.82037,6.32208,6.32208,0,0,0,1.59494,1.64173,1.95208,1.95208,0,0,1,.874,1.38228,12.16681,12.16681,0,0,1-.21054,5.9013c-.37,1.45246-.85914,2.97085-1.90117,5.90129a20.8959,20.8959,0,0,0-.706,2.21166,17.60137,17.60137,0,0,0-.54228,4.48711,19.50061,19.50061,0,0,0,.30836,3.70878c.05316.32962.0957.60608.0957.61033,0,.02339-.1361-.08719-.31049-.25306a2.76575,2.76575,0,0,1-.806-1.31636c-.05316-.19565-.21265-1.24619-.27432-1.80335a16.414,16.414,0,0,1-.09995-2.52,8.673,8.673,0,0,1,.72517-3.16862c.95484-2.218,1.46948-3.52376,1.87778-4.76357a17.32724,17.32724,0,0,0,.88679-3.95971c.08506-.76133.04678-.9676-.22116-1.21429-.0957-.08719-.32325-.21053-.34664-.18714s0,.11483.01276.2403a3.42,3.42,0,0,1-.01914.92082,7.82425,7.82425,0,0,1-.78045,2.34776c-.41256.82511-.27221.52739-1.395,2.50087-1.25256,2.1989-1.63535,2.88366-1.77358,3.1665a6.15156,6.15156,0,0,0-.504,1.50563,10.271,10.271,0,0,0-.14248,1.22917c-.07018.79747-.05742.72729-.134.74005a.4371.4371,0,0,1-.07018.00638c-.00212-.00212-.05316-.19139-.11058-.41893a2.39478,2.39478,0,0,1-.10846-1.18239c.07869-.75707.19353-1.55029.38492-2.66462a13.32111,13.32111,0,0,1,.96122-3.45572,10.30031,10.30031,0,0,0,.83362-3.058c.07656-.44233.13823-.81661.13823-.82937.00213-.04466.05742.07656.23605.50825.09357.23393.219.51464.27646.62522a1.77833,1.77833,0,0,0,.789.82724l.17651.09145.00638-.18289a.46736.46736,0,0,0-.0404-.27221,1.783,1.783,0,0,1-.18076-.86765,3.954,3.954,0,0,1,.44233-1.35039A26.72241,26.72241,0,0,0,42.27393,33.266a3.25148,3.25148,0,0,0,.1999-1.0633,2.55024,2.55024,0,0,0-.134-1.008,3.06042,3.06042,0,0,0-.79322-1.22279,14.35627,14.35627,0,0,1-1.193-1.40568,17.48437,17.48437,0,0,1-2.318-4.07243,14.16451,14.16451,0,0,0-2.1436-3.74918,4.3601,4.3601,0,0,0-1.78-1.19515c-.25094-.09994-1.24618-.4402-1.25469-.42957-.00213.00213-.08293.36365-.18076.80173-.0957.43808-.17863.81448-.18289.83362-.0085.0319.04253.03615.60183.04253a2.42317,2.42317,0,0,1,.689.04254,8.51779,8.51779,0,0,1,.91019.64435,3.151,3.151,0,0,1,.32749.319c.12547.14886,1.41631,2.07556,2.42219,3.61521.29772.45509.92719,1.41631,1.39717,2.133.46785.71878.85276,1.30785.85276,1.3121s.11909.18715.2637.40831a6.695,6.695,0,0,1,.88466,1.72892,4.67262,4.67262,0,0,1,.25519,1.54391,9.285,9.285,0,0,1-.30835,2.1032,7.64011,7.64011,0,0,0-.2956,2.19039,4.03606,4.03606,0,0,0,.04466.84c.02552.134.04466.24456.04254.24881a3.63062,3.63062,0,0,1-.34876-.50613,4.72692,4.72692,0,0,1-.51464-2.90067,13.03457,13.03457,0,0,0-.11058-2.7114,7.09324,7.09324,0,0,0-1.18876-2.571c-.14036-.21266-.25519-.39129-.25519-.39767,0-.034-.81661-1.20366-1.45034-2.07556-.5678-.78259-1.629-2.1989-1.99475-2.66462-.58481-.74218-1.2802-1.56943-1.51626-1.80122a.82166.82166,0,0,0-.47-.25094c-.19139,0-.38491.14673-.56567.42957-.11484.17651-.11271.20628.017.13185a1.90414,1.90414,0,0,1,.57418-.2637c.20628,0,.43808.19352.84213.69965.75282.94208,2.5902,3.33237,2.93683,3.81936.30836.42957.9038,1.29509.89742,1.30147a1.99219,1.99219,0,0,1-.21691-.0404,2.61876,2.61876,0,0,0-.66988-.04679,6.60815,6.60815,0,0,0-1.33975.1361c-.20415.034-.55291.08719-.77621.117a6.05845,6.05845,0,0,0-1.36952.28709.83343.83343,0,0,0-.31048.32537.25388.25388,0,0,0-.01064.28709.22419.22419,0,0,0,.13185.13184c.134.06167.28071.05317.73155-.0404.22116-.04678.62309-.12334.891-.17013.27007-.04891.66137-.12121.8719-.16162s.48061-.08506.60183-.1a.82526.82526,0,0,0,.21691-.04253,1.38812,1.38812,0,0,1,.29772-.017,1.17593,1.17593,0,0,1,.29773.01913c0,.01064.05741.0234.12546.0319a1.99423,1.99423,0,0,1,.62948.19352,1.803,1.803,0,0,1,.82511.772l.14461.21266-.03615.0723a.45485.45485,0,0,1-.21691.23818.84551.84551,0,0,0-.21691.19139l-.117.13823-.02765-.13185c-.04891-.22967-.04466-.22754-.17438-.05316l-.117.15524-.14886.00638a8.65971,8.65971,0,0,1-1.14836-.134,5.57616,5.57616,0,0,0-1.31636-.09569,2.31247,2.31247,0,0,0-.97185.38491,2.19517,2.19517,0,0,0-.45935.43595.90039.90039,0,0,0,.22116-.11909,4.20743,4.20743,0,0,1,1.25256-.5678,1.89069,1.89069,0,0,1,.59332-.05741,2.45714,2.45714,0,0,1,.87829.13822,3.4491,3.4491,0,0,1,.50825.22543c-.00638.00425-.1999-.02127-.4317-.0553a5.76377,5.76377,0,0,0-1.21-.117,1.86446,1.86446,0,0,0-.61246.05742,2.63175,2.63175,0,0,0-1.18239.72517l-.18076.18076.03615.07656c.01914.0404.04466.07443.05742.07443s.23818-.10633.50188-.23393c.26582-.12972.48912-.23392.4955-.23392a6.39377,6.39377,0,0,1,.09782.74,1.79335,1.79335,0,0,1-.2318-.03615,2.27943,2.27943,0,0,0-.35726-.04466c-.12547,0-.13185.00213-.22755.09995l-.09782.09995.12759.02765a3.434,3.434,0,0,1,.891.26369c.10633.05317.27646.14248.37854.19352a2.11186,2.11186,0,0,0,2.39667-.22967,2.99245,2.99245,0,0,0,.55079-.52952,2.68331,2.68331,0,0,0-.672.31474,3.80662,3.80662,0,0,1-.79109.387,1.33819,1.33819,0,0,1-.9357-.051l-.08932-.0404.11271-.03615a.92029.92029,0,0,0,.38492-.219,1.25562,1.25562,0,0,0,.34663-.7911c.01914-.12334.03616-.22329.03828-.22542s.14887.04892.32325.11271a2.76806,2.76806,0,0,0,.95271.23393,1.08966,1.08966,0,0,0,.38279-.0234c.32324-.08719.51038-.35726.59757-.85489a1.49847,1.49847,0,0,1,.05955-.2403l.02764-.068.07869.10208a3.00777,3.00777,0,0,1,.50613,1.00588,6.39577,6.39577,0,0,1,.01063,2.14785c-.13823,1.86928-.25519,3.14523-.38492,4.23192a6.18751,6.18751,0,0,1-.63584,2.267,6.69527,6.69527,0,0,1-1.44822,1.92244A21.502,21.502,0,0,1,33.506,44.79211a6.28149,6.28149,0,0,1-1.24831.71028,4.65069,4.65069,0,0,1-3.89166-.31686,6.233,6.233,0,0,1-1.06968-.71241c-.21691-.16588-.66137-.49762-.98887-.73793-1.46947-1.07818-1.96071-1.49712-2.08831-1.7757-.10845-.23606-.09144-.40831.11271-1.11646a4.08594,4.08594,0,0,0,.23393-1.378,9.25028,9.25028,0,0,0-.37641-1.6715,4.36224,4.36224,0,0,0-1.28871-1.96285,1.53647,1.53647,0,0,1-.46147-.62522c-.06168-.21691-.20628-2.04791-.27008-3.42806a4.15806,4.15806,0,0,1,.49975-2.722c.06592-.09995.11909-.18714.11909-.19139s.07018-.09995.15737-.21054a6.69724,6.69724,0,0,0,.5763-.92719c.17226-.31261.66775-1.13773.98462-1.63748a18.68064,18.68064,0,0,1,1.3993-1.94583A12.85754,12.85754,0,0,1,27.19,22.8563a4.34015,4.34015,0,0,1,1.87353-.91869,2.92182,2.92182,0,0,1,.71028-.04891,3.11975,3.11975,0,0,1,.59545.02765,1.66887,1.66887,0,0,1,1.02927.59544,2.71366,2.71366,0,0,1,.33387.58482c.034.09569.20628.31473.22542.29134a2.92626,2.92626,0,0,0-.05742-.61033,1.33752,1.33752,0,0,0-1.02076-.99312,4.02084,4.02084,0,0,0-1.30361-.20415,2.81632,2.81632,0,0,0-.91443.10633,4.31741,4.31741,0,0,0-1.85439,1.06542,10.74158,10.74158,0,0,0-2.24355,2.66675c-.10421.17438-.29773.49124-.4317.70177-.13611.21054-.319.49763-.41044.64011-.08931.14035-.28071.453-.42319.69114s-.3998.64223-.56993.89955c-.17225.25519-.32324.48274-.336.50613-.04466.07656-.41043.54228-.57843.73367a9.02283,9.02283,0,0,1-.9591.94847c-.51676.453-.908.82512-1.18238,1.11859a1.51036,1.51036,0,0,0-.33813.48273l-.1276.25306-.02551-.11483a1.66857,1.66857,0,0,1,.09782-1.04841,5.07674,5.07674,0,0,1,1.28021-2.04791A9.71544,9.71544,0,0,0,22.94746,25.623a17.61777,17.61777,0,0,1,.91656-1.965,12.15688,12.15688,0,0,1,1.35677-1.85226A34.11359,34.11359,0,0,1,27.7323,19.2815a2.088,2.088,0,0,1,1.7353-.31686,2.127,2.127,0,0,1,.96972.55929,2.35051,2.35051,0,0,1,.60183.96122c.03828.10421.10846.26795.15311.36152a9.52573,9.52573,0,0,0,.59332,1.01652c.02765-.02765.23605-.7677.34664-1.22917.25306-1.04842.42319-1.77784.44445-1.91819a.72012.72012,0,0,0,.00213-.26157c-.01276-.05742-.01488-.10633-.00425-.10633s.18714.034.39555.07655Zm3.46635.27859a.96731.96731,0,0,1,.12759.25094,1.44348,1.44348,0,0,1-.32111-.051c-.07656-.02978-.1361-.12335-.10633-.17013a.2382.2382,0,0,1,.19139-.08719C36.40663,18.64564,36.40663,18.66053,36.43641,18.70306Zm-12.40655-.01914a1.39994,1.39994,0,0,1-.33387.285.49739.49739,0,0,1-.19139.03828c-.117,0-.12122-.00212-.09995-.04465a.76061.76061,0,0,1,.26582-.2552.61818.61818,0,0,1,.3594-.02339Zm13.17.00638a.52185.52185,0,0,1,.22117.14248.8631.8631,0,0,1,.12546.13185c0,.03828-.18289.04678-.26582.01276-.10846-.04679-.37854-.24881-.35727-.27008a.31365.31365,0,0,1,.151-.03828.82625.82625,0,0,1,.12547.02127Zm-14.30559.11483c.03828.04679-.00212.12547-.08931.18289a.33913.33913,0,0,1-.302,0c-.05955-.02339-.05955-.02552-.02127-.07018a.62551.62551,0,0,1,.319-.14461c.08082,0,.07869.01489.09357.0319Zm15.40717.0234a.42969.42969,0,0,1,.117.08293l.04678.051-.11483.034c-.12547.03615-.17013.02765-.24456-.03828C37.97606,18.84129,38.12492,18.74346,38.30143,18.82853Zm-16.0175.43595a.1154.1154,0,0,1,.02339.20841.30034.30034,0,0,1-.36364-.04466c-.10633-.09995-.02765-.18714.17012-.18714S22.25841,19.25172,22.28393,19.26448Zm16.70864.01914c.051.051.05317.06167.00851.12547-.10633.14886-.45084.14035-.48912-.01276-.01276-.04466-.00425-.06593.04253-.10633.04891-.04253.08081-.04891.22755-.04891s.17437.00638.21053.04253Zm.572.37215a.63219.63219,0,0,1,.25732.30623.16749.16749,0,0,1-.14886.151c-.12759,0-.32112-.24881-.285-.3679.01488-.05317.07018-.12122.09782-.12122a.17092.17092,0,0,1,.07869.0319ZM21.546,19.67916c.14674.07018.18076.19778.07018.2552a.57858.57858,0,0,1-.42107-.02127.14787.14787,0,0,1,.01064-.22329A.38535.38535,0,0,1,21.546,19.67916Zm1.70128.20416a8.56341,8.56341,0,0,0-1.16112,2.67312c-.034.13611-.10421.45722-.15737.71666-.05317.25732-.12972.60608-.17226.772a8.81217,8.81217,0,0,1-1.8714,3.71941,6.96816,6.96816,0,0,0-.82937,1.05266c-.02552.04891-.08931.16588-.14035.25944a4.22634,4.22634,0,0,0-.42107,3.08994,1.70589,1.70589,0,0,1,.04041.24456.88257.88257,0,0,1-.219.43383,5.60566,5.60566,0,0,0-1.08457,3.51526,6.7869,6.7869,0,0,0,1.22067,3.66837,7.99642,7.99642,0,0,1,.92507,2.05216,7.72193,7.72193,0,0,1,.24455,2.39455c-.03828.61246-.27858,2.64973-.5763,4.89967-.17651,1.327-.202,1.546-.24456,2.067a11.21448,11.21448,0,0,0,.20841,3.52164l.06592.28284-.04678.04466c-.02552.02552-.04892.04253-.05529.03615s-.13185-.353-.285-.77408a18.76891,18.76891,0,0,1-1.12922-4.14685,13.53556,13.53556,0,0,1-.00212-4.317A7.42913,7.42913,0,0,0,17.69474,44.42,5.49728,5.49728,0,0,0,17.565,42.9207a8.41476,8.41476,0,0,0-.50825-1.50988,23.62253,23.62253,0,0,1-1.36953-4.27871,4.54755,4.54755,0,0,1,.02127-1.56942,12.257,12.257,0,0,1,2.49662-5.8375c.32111-.4083.64861-.84213.64861-.857a1.35515,1.35515,0,0,1,.11909-.19777,14.529,14.529,0,0,0,1.25894-3.33663,14.722,14.722,0,0,0,.42957-1.55241,5.32157,5.32157,0,0,1,.638-1.70127c.39129-.77408.66987-1.28659.9676-1.77571l.17438-.28709.44445-.16375c.24456-.08931.45722-.16374.47211-.16374A.601.601,0,0,1,23.24728,19.88332Zm17.07016.32324a.37286.37286,0,0,1,.12547.09357c.05316.0638.11909.27008.09356.2956s-.20627-.05955-.2807-.12547a.79093.79093,0,0,1-.117-.13823l-.04678-.07656.04678-.03828c.05955-.04891.0872-.04891.17863-.01063Zm-19.38815.02552.13823.03615-.05742.05955a.5288.5288,0,0,1-.4636.15524c-.08294-.0319-.00212-.1999.12335-.25519C20.75491,20.19168,20.76554,20.19168,20.92929,20.23208ZM39.3945,21.48039c.07443.21266.353,1.02715.61884,1.81186a22.76051,22.76051,0,0,0,1.14623,3.04741,9.32347,9.32347,0,0,0,.71666,1.23767A12.81269,12.81269,0,0,0,43.031,29.05957l.1999.22116-.04466.04466-.04466.04466-.18715-.17226a8.31583,8.31583,0,0,1-1.39929-1.63747A15.67805,15.67805,0,0,1,39.739,23.30288c-.11909-.3998-.487-1.69064-.59332-2.09044-.02127-.07443-.01914-.08294.02339-.09995a.26089.26089,0,0,1,.068-.01914,1.99,1.99,0,0,1,.15737.387ZM22.56464,23.71756a10.04983,10.04983,0,0,1-1.58006,4.0703,6.27205,6.27205,0,0,1-.65712.77621,2.86228,2.86228,0,0,0-.26157.29135.95187.95187,0,0,1-.09357.151,4.25555,4.25555,0,0,0-.39555.75068c-.0723.16375-.19139.4317-.26582.59545a4.34653,4.34653,0,0,0-.17863.44658c-.0234.08082-.06168.21905-.08719.302-.034.117-.05317.15524-.08294.15524s-.04679-.0404-.08507-.18926l-.04891-.18714.07443-.1999c.04041-.11058.14248-.39767.22329-.638a3.53541,3.53541,0,0,1,.7996-1.49712A9.80158,9.80158,0,0,0,22.23714,24.313c.04678-.17651.1042-.37641.12972-.44659a4.99736,4.99736,0,0,1,.28284-.60182,3.44008,3.44008,0,0,1-.08507.453Zm22.23778,7.63235c.61459.88678.88892,3.15586.6635,5.49937a10.76159,10.76159,0,0,1-.46785,2.3754,3.19908,3.19908,0,0,1-.23606.50825c-.00425-.00425.04466-.32749.10846-.71666a22.98076,22.98076,0,0,0,.42107-4.05966,10.6241,10.6241,0,0,0-.15524-2.02026,10.5036,10.5036,0,0,0-.453-1.66938C44.62166,31.099,44.63442,31.1096,44.80242,31.34991Zm-24.896.93782a3.44558,3.44558,0,0,0,.35727,1.23343,7.3329,7.3329,0,0,0,1.75869,2.05854,6.08641,6.08641,0,0,1,1.6077,1.87353,8.89575,8.89575,0,0,1,.50188,1.67151,4.32671,4.32671,0,0,1-.00851,1.03778,1.39857,1.39857,0,0,1-.15737.40192c-.017-.017-.0319-.31686-.06167-.69752-.02977-.37854-.07018-.78046-.08719-.891a2.68812,2.68812,0,0,0-.25519-.76983c-.22754-.4402-.41894-.6316-1.36953-1.38441-2.28608-1.80761-2.4392-1.94159-2.60082-2.26908l-.068-.13823v-.64861a12.69414,12.69414,0,0,1,.07656-1.58218,1.18924,1.18924,0,0,1,.11908-.20841c.12122-.17651.11059-.19564.18715.31261Zm-.25307,2.839c1.43758,1.22917,1.93308,1.6396,2.571,2.12021a3.09807,3.09807,0,0,1,1.05479,1.20578,4.23758,4.23758,0,0,1,.35089,1.7672,5.30978,5.30978,0,0,1-.53377,2.61571,5.08811,5.08811,0,0,1-.57631.94208,2.3218,2.3218,0,0,0-.21478.319c-.00851.03828.00212.06592.04465.10633l.05742.05741.35514-.36152a4.64365,4.64365,0,0,0,.80385-1.01013l.21054-.32749.01276.12547a9.05055,9.05055,0,0,1-.00426,1.15048,4.74117,4.74117,0,0,1-.3764,1.44184c-.04466.09356-.25732.46785-.4721.8315-1.28234,2.17125-1.48649,2.59869-1.66725,3.50037a6.34624,6.34624,0,0,0-.1276,1.46522,11.05928,11.05928,0,0,0,.09995,1.63748,5.88081,5.88081,0,0,1-.068,2.00963c-.05742.12972-.15311.17012-.50188.21266l-.10633.01276-.09994-.25094c-.0553-.13823-.19778-.4955-.32112-.79322a7.51606,7.51606,0,0,1-.75919-3.01976,4.40084,4.40084,0,0,1,.25944-1.66938c.07868-.28709.219-.70816.90806-2.73267a6.70874,6.70874,0,0,0,.50613-2.62634,6.83422,6.83422,0,0,0-.20628-1.49287,12.798,12.798,0,0,0-1.22067-3.28984,8.50057,8.50057,0,0,1-.70177-1.75231A3.39714,3.39714,0,0,1,18.8027,36.19a2.87063,2.87063,0,0,1,.05742-.79109,2.26657,2.26657,0,0,1,.19564-.59757c.04041-.0872.0638-.117.08507-.10633.01488.01063.24668.20415.51251.4317Zm-5.10595,2.32862c.01914.18076.14036.689.46573,1.96709a21.783,21.783,0,0,1,.70815,3.29622,13.86065,13.86065,0,0,1,.01064,1.92457,8.42359,8.42359,0,0,1-.55079,2.21166,10.17941,10.17941,0,0,0-.54653,1.73317c-.17013.85489-.117,1.41206.33812,3.54716a6.79187,6.79187,0,0,0,.32112,1.26319c.08506.2233.08506.22117.0319.24881-.034.01914-.0638-.01488-.24243-.28071a3.85537,3.85537,0,0,1-.24669-.40192,26.06743,26.06743,0,0,1-.54866-2.654,4.155,4.155,0,0,1-.05742-.82937,5.31881,5.31881,0,0,1,.33813-1.82887,19.49287,19.49287,0,0,0,.81236-2.97723,12.96971,12.96971,0,0,0-.00213-2.07343,9.73562,9.73562,0,0,0-.43807-2.00963,9.451,9.451,0,0,1-.621-3.14736c0-.48273.02127-.6082.12335-.77833l.06167-.1042.01488.38278c.00638.21053.01914.44021.02765.51039Zm11.541,6.70089c.59758.41256.71241.4955.974.69753a6.2317,6.2317,0,0,0,1.1909.79109,5.13293,5.13293,0,0,0,1.79484.51676,8.35031,8.35031,0,0,0,1.22067,0,5.04687,5.04687,0,0,0,2.55191-1.03778c.35089-.25094,1.60983-1.16537,1.68-1.22066.01913-.01488.02551.4317.02551,2.22654v2.24356l-.05741-.00851a14.646,14.646,0,0,0-2.05855-.28071,3.93478,3.93478,0,0,0-1.09306.11271c-.168.03828-1.28234.35727-1.48437.42319-.03828.01277-.034.04679.034.36578l.06167.28284h-.2956c-.22329,0-.29559-.00639-.29559-.02765s.02339-.1595.05316-.32112a2.94647,2.94647,0,0,0,.04679-.29985c-.00213,0-.134-.03828-.29135-.08081-.15736-.04466-.46572-.13185-.68476-.19565a5.30084,5.30084,0,0,0-1.52689-.26582,6.823,6.823,0,0,0-1.38654.16375c-.40618.068-.74431.11483-.75282.10632s-.04678-.9038-.08506-1.98836-.0723-2.09257-.07868-2.24356a1.58314,1.58314,0,0,1,0-.27007c.00638,0,.21053.14036.45722.31048Zm12.68088.974c-.1361.5359-.27859,1.13985-.32112,1.344a14.77141,14.77141,0,0,0-.25732,3.2303,14.50935,14.50935,0,0,0,.24031,2.52c.10846.689.1999,1.30785.1999,1.35464s-.0638-.03615-.15525-.20628a9.30651,9.30651,0,0,1-.572-4.15324,14.01547,14.01547,0,0,1,.77408-4.4063,4.33166,4.33166,0,0,1,.32749-.66349c.01489.01488-.10208.44658-.236.98036Zm-5.157,3.26645c.14673.02339.60608.11058,1.025.19352.72729.14673.75707.15524.7677.202.00425.02764.00213.051-.00425.051s-.21479.03828-.45935.08507c-.706.13184-1.24618.22754-1.64811.28921a5.65011,5.65011,0,0,1-1.46735.02127,1.26642,1.26642,0,0,1-.48273-.09144l-.11271-.0553.06592-.12121a.37391.37391,0,0,1,.20628-.19565,4.86811,4.86811,0,0,1,.76983-.31261A3.14586,3.14586,0,0,1,33.61229,48.39668Zm-4.721.05316a3.42049,3.42049,0,0,1,.67413.25732c.31687.14036.38917.19352.42957.31049.05955.17012-.28071.26795-.9995.28709a7.19451,7.19451,0,0,1-2.05-.26158c-.36152-.07655-.75707-.15311-.87616-.17225-.19777-.02977-.219-.03828-.219-.07868a.30732.30732,0,0,0-.01276-.08932c-.01063-.04253-.00212-.04678.134-.05955.07868-.0085.40831-.04253.72942-.07656A10.06951,10.06951,0,0,1,28.89125,48.44984Zm-2.19464.88467.87616.15736v.1595c0,.38278.14248.46572.98674.58694.21266.02977.40405.06167.42744.07018.03615.01488.01914.03615-.12759.18714a.58978.58978,0,0,1-.57206.23392,1.45357,1.45357,0,0,1-.46785-.11909,9.07953,9.07953,0,0,0-1.46947-.387c-.35089-.0723-.64649-.13822-.65712-.14886a1.62948,1.62948,0,0,1,.017-.36365c.05317-.52314.05955-.55291.08506-.54228C25.80769,49.17288,26.21387,49.24731,26.69661,49.33451Zm8.74455-.14674c0,.00425.02977.11909.0638.25944.07656.30411.08293.4721.01914.55292-.07231.09356-.18927.1361-.69115.25732-.26582.06592-.71666.18289-1.00588.26582-.28709.08081-.62521.17226-.74856.20416-.21691.05529-.22754.05529-.34025.02339a1.07913,1.07913,0,0,1-.44233-.33813l-.11059-.11909.11272-.01276c.06166-.00638.25093-.02126.42106-.034.75707-.05529.91444-.1361.94634-.47848a1.31434,1.31434,0,0,0,.00638-.21266c-.00851-.03615,0-.05529.02339-.06167.24031-.06592,1.74594-.32962,1.74594-.30623Zm-6.29684.5678a.78429.78429,0,0,1-.02127.20415c-.00425.00426-.26157-.01488-.57205-.04466-.31048-.02764-.56567-.051-.5678-.051a.36981.36981,0,0,1-.00638-.10208V49.662l.58056.04466c.31686.02552.58269.04678.58694.04891Zm4.11921-.00851a.43452.43452,0,0,1,.00638.10633c-.017.01489-1.125.11909-1.14623.10633-.0319-.01913-.02765-.202.00638-.20415.01914,0,.96973-.08932,1.09307-.10208.01488,0,.0319.0404.0404.09357Zm-3.11121.63373.05317.07018-.21266.36577c-.20628.353-.21479.36577-.28071.36577s-.07018-.00425-.14673-.21265a1.54409,1.54409,0,0,1-.07869-.2637c0-.0723.11484-.17438.28709-.25519.08294-.03615.18289-.08294.22329-.10208.09995-.04678.09358-.04891.15525.0319Zm1.23981.0404a.9613.9613,0,0,1,.2722.1276.15.15,0,0,1,.07443.16162,1.33437,1.33437,0,0,1-.05741.28071c-.0553.16588-.0638.18076-.12547.19352q-.06592.01277-.28071-.33387c-.11909-.18927-.22117-.35939-.22755-.37854a.12016.12016,0,0,1,.02765-.08506c.04253-.05955.02552-.06167.31686.034Zm-2.25844,1.32912a2.1976,2.1976,0,0,1,.16587.31049.43517.43517,0,0,0,.18076.22967c.18076.14248.23605.25306.1999.41043a2.09327,2.09327,0,0,1-.61671.84639,1.399,1.399,0,0,1-.92719.33387,1.45981,1.45981,0,0,1-.51039-.08931c0-.02977,1.3589-2.22654,1.37591-2.22654a.71113.71113,0,0,1,.13185.185Zm3.81085.93145.66775,1.08456-.06167.02552a1.60742,1.60742,0,0,1-.59757.08507,1.57031,1.57031,0,0,1-1.20791-.84214c-.17225-.25944-.21478-.37215-.185-.47423a7.35434,7.35434,0,0,1,.69539-.96973c.01064.00426.32112.4955.689,1.09095Z" transform="translate(-12.62702 -1.35638)"/><path class="cls-1" d="M24.27442,28.14088a2.35985,2.35985,0,0,0-.68051.25306,2.2681,2.2681,0,0,0-.51038.42107.92349.92349,0,0,1-.08506.117c-.0319.03828-.09783.12547-.14461.19565l-.08719.12759.03615.07656c.01914.0404.04465.07443.05316.07443a6.23806,6.23806,0,0,0,.86552-.319,2.291,2.291,0,0,1,.67839-.21266c.12334,0,.04678-.01063.04678-.02126a.98865.98865,0,0,1,.29772-.02127.90958.90958,0,0,1,.29773.02127c0,.01276.034.02126.07443.02126.07656,0,.52739.08081,2.04153.36365a5.99556,5.99556,0,0,0,1.04415.16163c.20416-.01489.30411-.0957.33813-.27008.02552-.1361-.12547-.35727-.33174-.48912-.08507-.05529-.168-.07655-.69753-.17012a13.56532,13.56532,0,0,0-3.23667-.32963Z" transform="translate(-12.62702 -1.35638)"/><path class="cls-1" d="M22.45618,29.9017c.00638.02552.0319.24881.05529.49337a2.05156,2.05156,0,0,0,.17013.83362.95939.95939,0,0,0,.61246.40831,2.28789,2.28789,0,0,0,1.31-.27221c.117-.04891.219-.08719.22755-.08719a.55157.55157,0,0,1,.03828.17438,2.10944,2.10944,0,0,0,.16374.59544,1.03558,1.03558,0,0,0,.59332.48487.43308.43308,0,0,1,.10208.04253c.00851.0085-.07656.03828-.19139.06593a2.00688,2.00688,0,0,1-.92082.00212,2.03849,2.03849,0,0,1-.5678-.28709c-.07018-.05316-.168-.12121-.21478-.151-.10846-.068-.56355-.3126-.5678-.3041a.37213.37213,0,0,0-.03828.07018l-.034.068.18927.16587a3.42229,3.42229,0,0,0,.77621.53165,1.74868,1.74868,0,0,0,.86127.21479,2.62037,2.62037,0,0,0,1.361-.32324,9.38869,9.38869,0,0,1,.97823-.38279c.27646-.09782.36152-.13823.2956-.13823s-.98249-.06379-.98674-.068c-.00213-.00425.01488-.16162.0404-.35088l.04253-.34239.50826.25519c.28071.13823.51038.25094.51464.24669.00212-.00425.02551-.04466.04891-.09357l.04466-.08719-.11059-.10633a3.06526,3.06526,0,0,0-1.29084-.79322,4.30014,4.30014,0,0,0-1.65449.04466c-.25094.034-.47.06167-.48911.05742a1.73589,1.73589,0,0,1,.52739-.22117,2.88283,2.88283,0,0,1,1.73318.0234,3.93357,3.93357,0,0,1,1.00588.53165c.0723.05529.13184.08931.13184.07656a2.71234,2.71234,0,0,0-.521-.4317,2.33236,2.33236,0,0,0-.61033-.31049,2.11041,2.11041,0,0,0-.92082-.12546,7.68533,7.68533,0,0,0-1.47586.21053c-.48273.08931-.58481.1042-.59969.07868-.00851-.017-.05317-.13185-.09783-.25944a1.1244,1.1244,0,0,0-.09569-.22755.52418.52418,0,0,0-.02765.16375c-.00638.09144-.017.202-.02552.24881l-.01063.08293-.42957-.42957c-.236-.23392-.43595-.42744-.44659-.42744s-.01276.02126-.00425.04891Z" transform="translate(-12.62702 -1.35638)"/><path class="cls-1" d="M28.77,29.88681a.28958.28958,0,0,0-.07018.03615,2.41769,2.41769,0,0,0,.25094.53165,2.35721,2.35721,0,0,1,.42957,1.39292,3.04293,3.04293,0,0,1-.20628,1.15261c-.07443.2637-.24881.92294-.38491,1.46735a5.4677,5.4677,0,0,0-.24881,1.19089,1.14074,1.14074,0,0,0,.20628.67413,1.10125,1.10125,0,0,0,.43382.39129.54721.54721,0,0,0,.48274.04041,1.28793,1.28793,0,0,0,.19139-.0638.974.974,0,0,0-.23392-.19352c-.40406-.285-.51039-.404-.5997-.672s-.07656-.26795.336-1.90543a7.32121,7.32121,0,0,0,.3998-2.32011,2.17571,2.17571,0,0,0-.05742-.51251,2.59182,2.59182,0,0,0-.37853-.76983,1.98493,1.98493,0,0,0-.44871-.4721.33593.33593,0,0,0-.10208.0319Z" transform="translate(-12.62702 -1.35638)"/><path class="cls-1" d="M31.31557,36.2751c-.12334.05954-.22754.11483-.2318.11909a3.49841,3.49841,0,0,0,.185.44871c.01276.02127.034.02127.0957.00213l.07656-.02339.00638-.21054.00638-.2084.32537.21691c.26157.17438.32962.21053.34663.185a.89072.89072,0,0,0-.00425-.37428.455.455,0,0,0-.43382-.25519c-.14461-.01063-.15525-.00638-.37216.09995Z" transform="translate(-12.62702 -1.35638)"/><path class="cls-1" d="M29.62068,38.74407a1.6621,1.6621,0,0,0-.772.49762,11.959,11.959,0,0,1-1.05479.86978,4.9876,4.9876,0,0,1-.78258.50825c-.19352.1042-.353.19565-.353.202a.82946.82946,0,0,0,.25944.15311,2.316,2.316,0,0,1,.52315.1595,2.82384,2.82384,0,0,1,.96547.79534,1.83111,1.83111,0,0,0,.47.44233,2.16484,2.16484,0,0,0,.62309.268,3.77943,3.77943,0,0,0,2.24143-.01064,2.65347,2.65347,0,0,0,1.19089-.81448,3.18731,3.18731,0,0,1,.79747-.64436,1.75209,1.75209,0,0,1,.46785-.15312.53079.53079,0,0,0,.22542-.08931c.21054-.1042.25307-.0553-.35088-.39555a6.07806,6.07806,0,0,1-1.60771-1.20578c-.58906-.56142-.69539-.61884-1.1037-.60182a1.18683,1.18683,0,0,0-.42745.08506c-.3041.11271-.33813.11483-.57418.03615a1.45845,1.45845,0,0,0-.73792-.10208Zm.1765,1.38229a1.15274,1.15274,0,0,1,.51251.25519l.16588.12972.16162-.0085a.30558.30558,0,0,0,.27645-.10846,1.51328,1.51328,0,0,1,.27221-.18076.598.598,0,0,1,.38491-.07868.63127.63127,0,0,1,.40618.08931,1.41649,1.41649,0,0,1,.35514.25094,1.23684,1.23684,0,0,1,.17438.18289c0,.01064-.76982.01914-1.90755.01914H28.69348l.04041-.04466a1.82575,1.82575,0,0,1,.806-.50613c.05954-.01063.11271-.01914.11909-.02127.00638,0,.068.00851.13822.02127Z" transform="translate(-12.62702 -1.35638)"/><path class="cls-1" d="M30.34372,43.0249a1.25367,1.25367,0,0,0-.18289.08294.88766.88766,0,0,0-.27007.27007,2.67884,2.67884,0,0,0,.7443.02127,5.9803,5.9803,0,0,0,.74431-.01914,1.12266,1.12266,0,0,0-.37641-.30623.67721.67721,0,0,0-.35726-.0723,1.00827,1.00827,0,0,0-.302.0234Z" transform="translate(-12.62702 -1.35638)"/></svg>