<svg id="Layer_1" data-name="Layer 1" xmlns="http://www.w3.org/2000/svg" viewBox="0 0 60 60"><defs><style>.cls-1{fill:#c9a582;}</style></defs><circle cx="30" cy="30" r="30"/><path class="cls-1" d="M30.27206,2.2362a1.246,1.246,0,0,0-.16139.21581A1.56083,1.56083,0,0,1,29.6115,2.97c-.21769.14825-.26835.2008-.26835.28525s.0394.0957.27773.33028a1.37457,1.37457,0,0,1,.51419.852,1.333,1.333,0,0,1-.107.67558,5.512,5.512,0,0,1-1.29486,2.03611,9.33028,9.33028,0,0,1-.7375.66994c-.00188-.00375-.01689-.05254-.0319-.11259a.978.978,0,0,0-.39409-.56486.63163.63163,0,0,0-.87074.289.61881.61881,0,0,0-.04879.34154v.23645l.08257.167a1.00443,1.00443,0,0,0,.40534.441c.0882.04316.10885.045.38471.03941a3.15049,3.15049,0,0,1,1.22917.22331c.20455.06381.25522.0882.31339.14825a.17612.17612,0,0,1,.07131.13512,1.01269,1.01269,0,0,1-.23457.45038c-.18579.24771-.34342.32841-.53483.27774a2.94884,2.94884,0,0,1-.32653-.14075,2.494,2.494,0,0,0-1.28735-.25334c-.60426,0-.66056.02252-.79005.07882a.19756.19756,0,0,0-.14449.24208,2.50437,2.50437,0,0,0,.4091.84259,6.15911,6.15911,0,0,1,.54233,1.09406,1.51072,1.51072,0,0,0,.3209.59676,1.08278,1.08278,0,0,0,.46164.26273.83424.83424,0,0,1,.09946.02815.43787.43787,0,0,1-.06943.0957,2.13078,2.13078,0,0,0-.17265.27211,1.57805,1.57805,0,0,1-.11259.19329.999.999,0,0,1-.28712-.22332.82594.82594,0,0,1-.152-.28149.28234.28234,0,0,0-.06755-.107.215.215,0,0,0-.25147-.02815c-.06005.0244-.0638.03378-.08632.16514a1.21806,1.21806,0,0,1-.274.70748c-.15951.1764-.15013.24771.05817.471a3.27229,3.27229,0,0,1,.21581.25334,1.28593,1.28593,0,0,1,.17828.38658c.01126.06005.02439.07694.092.10885.167.08257.28712.02439.34154-.16327a1.0163,1.0163,0,0,1,.24021-.441c.14262-.16326.182-.1764.289-.0957.12011.092.12573.137.05067.42786a1.7205,1.7205,0,0,0-.05817.75815,1.32216,1.32216,0,0,0,.2083.4973c.10509.14074.07881.15576-.58175.34905-.26272.07694-.411.09383-.48041.05817-.05629-.0319-.0882-.11447-.11635-.30589a.69975.69975,0,0,0-.25709-.471c-.18578-.20455-.19892-.29088-.0638-.41849l.08632-.08069.00938-.16326c.01877-.30214-.045-.45977-.21018-.533a1.48163,1.48163,0,0,0-.24771-.0638l-.16889-.03-.11072.06568c-.1764.10134-.21393.1445-.21393.24584s.01126.0957.04879.13511c.045.045.0563.04692.16326.03566.06381-.00563.14825-.01689.18766-.02252.09383-.015.12573.015.12573.11259,0,.15013-.15763.23646-.43349.23646a.61072.61072,0,0,1-.60051-.41473,1.13112,1.13112,0,0,1-.167-.51607.566.566,0,0,1,.13324-.37344.40881.40881,0,0,1,.27586-.21769c.18953-.06568.33215-.03565.37907.07882.0244.0563.02252.06193-.02815.107-.04879.04128-.06568.045-.17452.03565l-.122-.01126.01313.107c.0244.20079.11635.26647.32841.22894.21018-.03565.2721-.07319.33778-.20455a.43613.43613,0,0,0,.00939-.4166,2.53977,2.53977,0,0,1-.14075-.86136c-.00938-.22144-.02252-.41473-.02627-.42787-.015-.04128-.16326-.09758-.26085-.09758a1.91863,1.91863,0,0,0-.94956.40535c-.05629.04316-.16138.137-.23457.20642a1.07531,1.07531,0,0,1-.81632.29838.63552.63552,0,0,1-.45414-.10884c-.17452-.13324-.21018-.30777-.12948-.638.06943-.29462.04316-.441-.09383-.51231a1.17491,1.17491,0,0,0-.24771-.05817,1.30387,1.30387,0,0,1-.79943-.37345,1.66651,1.66651,0,0,0-.18579-.15576.16748.16748,0,0,0-.20079.05818c-.07132.08257-.06568.20267.01689.35655a.77215.77215,0,0,1,.07694.69059,2.10638,2.10638,0,0,0-.06005.26648c-.00939.09946-.00751.11072.045.16326a.46629.46629,0,0,0,.22332.10509c.57612.17453.70748.22894.78254.33216a.36907.36907,0,0,1,.00375.31527,1.69977,1.69977,0,0,0-.04879.28712c-.02064.23833-.04316.30213-.13511.38282-.07507.06569-.10885.07694-.41661.1445a3.30707,3.30707,0,0,0-.79755.29463c-.22144.11635-.27211.16889-.27211.289s.03566.14075.15388.19892a2.343,2.343,0,0,1,.49355.3453,1.04776,1.04776,0,0,0,.21018.15763c.107.05067.16889.12573.2965.35843a.84715.84715,0,0,0,.31527.36969.1597.1597,0,0,0,.16326.02627c.13887-.03565.24021-.02627.28712.02252a.37192.37192,0,0,1,.07882.25334.22092.22092,0,0,0,.12573.22144.64955.64955,0,0,0,.30964.03566c.2646.00188.31527.02064.31527.12385s.04692.12949.11447.24209a1.584,1.584,0,0,1,.10885.19516c-.00376.00375-.092.04129-.19517.08257s-.28149.11448-.39784.16327a.98476.98476,0,0,1-.46727.11822.55965.55965,0,0,1-.10885-.34342.50008.50008,0,0,1,.13887-.35467c.04692-.05067.05442-.07319.045-.122a.29192.29192,0,0,0-.20455-.197,4.78878,4.78878,0,0,1-.55547-.229.41615.41615,0,0,1-.18578-.35655c0-.15013-.09947-.152-.22144-.12761l-.05443.01126-.01126.23645-.01125.23645-.09383.18953a.85071.85071,0,0,0-.13324.44288.487.487,0,0,0,.17827.36969,3.31526,3.31526,0,0,0,.396.22894c.33028.1689.39783.22332.37344.30214a1.8781,1.8781,0,0,1-.2327.27023c-.122.12385-.27774.29275-.349.37532s-.18953.21393-.26272.29087a1.767,1.767,0,0,0-.44851.78817c-.12761.396-.182.548-.52732,1.50128-.50293,1.38305-.98334,2.65351-1.15036,3.03259a11.38646,11.38646,0,0,1-1.39994,2.11868c-.12573.15575-.23457.2965-.24583.31339-.00939.015-.11448.15013-.23083.29838a11.36647,11.36647,0,0,0-1.11845,1.76025,8.072,8.072,0,0,0-.837,2.84492c-.04129.29838-.11823.84447-.1689,1.21041a8.29843,8.29843,0,0,0-.12573,1.72647,8.38214,8.38214,0,0,0,.4335,2.55406,8.61329,8.61329,0,0,1,.4091,2.18811,6.829,6.829,0,0,1-.06193,1.36617c-.04692.32465-.34342,1.78277-.54422,2.67415a13.61885,13.61885,0,0,0-.43161,2.57094,14.81429,14.81429,0,0,0,.03,1.73586,17.09556,17.09556,0,0,0,.69434,3.2071c.12011.43162.21018.79193.20268.79944s-.29275.10321-.63054.21393a3.41344,3.41344,0,0,0-.6099.22331c.00564.01313.04129.11823.0807.2327a1.176,1.176,0,0,0,.08632.212c.02628,0,2.09241-.68683,2.48462-.8257.22707-.0807.82758-.29838,1.33239-.48416,1.1785-.43162,1.78652-.64368,2.36826-.82008a8.13633,8.13633,0,0,0,2.78675-1.18789,4.86651,4.86651,0,0,0,1.76964-1.84094,3.58824,3.58824,0,0,0,.28336-.78067c.06944-.26272.25522-.84447.27586-.86511s1.9892.50668,2.20876.59113a.52239.52239,0,0,1,.381.46915c0,.14262-.03753.21956-.19892.42223a5.68084,5.68084,0,0,0-.49917.73187,2.68105,2.68105,0,0,1-.99273,1.09218.601.601,0,0,0-.274.24208,2.82332,2.82332,0,0,0-.18015.43725.71388.71388,0,0,0,.20642.21956,1.64358,1.64358,0,0,0,.533-.27586.97077.97077,0,0,0,.16139-.20454.75578.75578,0,0,1,.441-.3772,3.2433,3.2433,0,0,1,.43161-.03378,1.69271,1.69271,0,0,0,.82571-.16889,1.54768,1.54768,0,0,0,.80881-1.24606c.015-.1051.0319-.20831.03566-.23083a.34322.34322,0,0,1,.10321-.107c.22519-.16139.22707-.35656.00751-.60615l-.08633-.09946.13887-.18953.137-.18954.015.39971a14.37093,14.37093,0,0,1-.137,2.4377c-.12386,1.10157-.12386,1.06216.02815,1.293a1.11049,1.11049,0,0,1,.20079.51419,1.30588,1.30588,0,0,1-.07882.61927,1.76271,1.76271,0,0,0-.01689,1.20478c.06381.27211.07507.2965.14075.33967.04128.02814.05255.02814.12573,0l.07882-.03.02252-.14075c.01313-.07694.04879-.22707.07881-.33215a1.18644,1.18644,0,0,0,.03941-.81257,1.47718,1.47718,0,0,1-.107-.67558,1.79454,1.79454,0,0,1,.16515-.73187,1.26325,1.26325,0,0,0-.03191-.93267.85078.85078,0,0,1-.06568-.39784c-.03-.55923-.05629-1.79966-.05066-2.31009l.00563-.50669.12385.17828c.18391.26272.17828.23645.0807.37532-.13512.19517-.13137.2646.02627.52545a.51839.51839,0,0,1,.09946.3284,1.58369,1.58369,0,0,0,.13324.55172,2.76418,2.76418,0,0,0,.548.65681,1.42963,1.42963,0,0,0,1.17663.29463.64057.64057,0,0,1,.30026.01688.77132.77132,0,0,1,.38282.39034,1.0636,1.0636,0,0,0,.38846.41285.62665.62665,0,0,0,.3847.00375A.58451.58451,0,0,0,34.44,49.1155a.7877.7877,0,0,0-.11823-.13887,3.85036,3.85036,0,0,0-.6174-.43912c-.09383-.045-.11635-.06944-.43537-.51982a13.6532,13.6532,0,0,1-.86136-1.30612.454.454,0,0,1,.22895-.61739,18.48042,18.48042,0,0,1,1.88973-.50669c.26836-.06193.2965-.05817.40347.05442.04879.05255.0638.09195.09008.2327a4.64574,4.64574,0,0,0,2.12994,3.042,6.60582,6.60582,0,0,0,1.81092.927c.349.11822,1.1785.37344,2.22377.685,1.66642.49542,2.09428.63241,3.57492,1.14847.54609.18954,1.07716.36969,1.18225.40159.10322.03.2008.06.21957.06568.02439.00751.045-.03565.11071-.23082.04317-.13136.08257-.24959.08633-.26272a7.52285,7.52285,0,0,0-.86136-.30589c-.47853-.15576-1.597-.52357-2.48649-.8182a8.50124,8.50124,0,0,1-1.68519-.60051c-.15013-.15013-.18954-.32277-.21769-.99272-.02064-.52357,0-1.50878.0488-2.16747a21.232,21.232,0,0,1,.7694-4.35371c.05818-.2008.20268-.65681.3209-1.01336.578-1.73211,1.04152-3.27655,1.36617-4.54137a20.478,20.478,0,0,0,.55547-5.2451,7.22938,7.22938,0,0,0-.72249-3.47171,7.09926,7.09926,0,0,0-.65869-1.08843,7.003,7.003,0,0,1-.40534-.60051c-.015-.0319-.08633-.15388-.15576-.2721a10.2252,10.2252,0,0,1-.57049-1.171,8.49218,8.49218,0,0,1-.45226-1.55946,13.072,13.072,0,0,0-.9946-2.91811c-.14637-.34529-.30776-.71686-.35655-.8257a3.33242,3.33242,0,0,1-.12948-.34717,2.68034,2.68034,0,0,0-.84635-1.21041c-.3209-.259-.37344-.34529-.30026-.486.0563-.11072.18016-.19141.47854-.31151.30025-.122.39033-.17453.441-.259a.19815.19815,0,0,0-.01127-.23833,1.92734,1.92734,0,0,1-.20454-.882.57509.57509,0,0,0-.03566-.21018.3394.3394,0,0,0-.11634-.015c-.122,0-.16327.04129-.20643.21206-.0638.26085-.18391.3453-.57612.40722a1.546,1.546,0,0,1-.259.02815.74125.74125,0,0,1-.00563-.28712c.01126-.03753.02252-.04128.16514-.04128.25334-.00188.35468-.07319.57049-.40347a2.945,2.945,0,0,1,.93079-.85386c.23458-.14449.28525-.20267.26461-.30213-.03566-.16138-.51232-.38845-1.17663-.55922a2.148,2.148,0,0,1-.32465-.10322c-.06193-.04128-.09008-.09946-.15951-.33215-.1764-.593-.06193-.76.65305-.95707.27961-.07694.38283-.12386.41661-.18578.03565-.06569.01876-.1689-.0488-.31152a.72158.72158,0,0,1,.00939-.7375,1.133,1.133,0,0,0,.08632-.21206.204.204,0,0,0-.21769-.24959.81686.81686,0,0,0-.19892.1445,1.16445,1.16445,0,0,1-.81632.38283c-.22331.01876-.3528.1201-.37907.29274a1.05423,1.05423,0,0,0,.0563.396.46211.46211,0,0,1-.31152.61552,1.85,1.85,0,0,1-.62491-.00938.91509.91509,0,0,1-.501-.27962,2.074,2.074,0,0,0-1.13534-.58925c-.11448-.0075-.13887-.00375-.197.03566-.1051.07131-.12949.17077-.13137.54046a1.16458,1.16458,0,0,1-.092.593,1.5052,1.5052,0,0,0-.07131.548.28094.28094,0,0,0,.14262.24959.58673.58673,0,0,0,.46728,0c.11447-.04316.11634-.045.11634-.11447s-.04879-.13324-.182-.152c-.137-.01876-.1839-.06193-.167-.15576.01877-.09758.09383-.13136.25709-.11822a.57211.57211,0,0,1,.40159.18578c.1126.12573.12949.18579.11635.426a.96415.96415,0,0,1-.46352.882.54484.54484,0,0,1-.30025.04879.42078.42078,0,0,1-.39034-.152c-.0882-.15388-.01126-.21581.22519-.1764s.16515.01876.18954.01126c.08445-.02065.11448-.167.05818-.28337-.03941-.08257-.11823-.11823-.34154-.15388a.51267.51267,0,0,0-.29275.00375.22214.22214,0,0,0-.16327.11823.65668.65668,0,0,0-.092.43725c0,.24771.00376.22144.03566.24959a.31135.31135,0,0,1,.0882.22519.6098.6098,0,0,1-.11072.15951,1.21882,1.21882,0,0,0-.27774.56485c-.0244.16327-.06193.2571-.1126.27211a1.75246,1.75246,0,0,1-.54984-.09383,1.981,1.981,0,0,1-.54234-.19892c-.015-.02252.00188-.06568.07132-.17452a1.61582,1.61582,0,0,0,.137-.289.99067.99067,0,0,0,.04879-.40722,1.30167,1.30167,0,0,0-.05442-.45038c-.09195-.32653-.07881-.42412.06944-.50481.09758-.05255.14637-.03.26272.11447a.98073.98073,0,0,1,.2083.35468c.092.25334.12574.289.274.289s.09946-.01877.12386-.13137a.29935.29935,0,0,1,.05442-.11259.831.831,0,0,0,.09383-.17077.42645.42645,0,0,1,.22894-.259.1302.1302,0,0,0,.07506-.0563.635.635,0,0,1,.08257-.10509.30214.30214,0,0,0,.02815-.36406.37607.37607,0,0,0-.09008-.13512.91657.91657,0,0,1-.18578-.46539c-.0319-.27211-.08632-.3453-.259-.34717-.11823-.00188-.15951.03753-.21018.20079a.4284.4284,0,0,1-.13511.22707c-.05255.05255-.11823.12385-.14638.15763-.06.07132-.11447.07694-.15951.01314-.01876-.02627-.09571-.12949-.17077-.23082-.12386-.16514-.21018-.32841-.18766-.35093s.05255-.00187.10509.00939a.49634.49634,0,0,0,.48041-.1689,1.23768,1.23768,0,0,0,.22707-.441,12.65861,12.65861,0,0,1,.66432-1.34177c.33028-.60426.3772-.70935.3772-.837s-.02252-.15013-.10885-.19329a1.59357,1.59357,0,0,0-.60614-.09008,3.75531,3.75531,0,0,0-1.779.35093c-.212.09946-.24959.107-.31339.06943a3.6914,3.6914,0,0,1-.40534-.51419c-.08445-.12573-.15576-.30589-.13324-.33966a4.52587,4.52587,0,0,1,.90077-.3528,2.10883,2.10883,0,0,1,.60614-.06193c.4091-.01314.426-.015.52732-.06381a.91768.91768,0,0,0,.40723-1.19915.58447.58447,0,0,0-.54985-.32277c-.24959,0-.486.15763-.64555.55359a.74627.74627,0,0,1-.09007.18016,5.25656,5.25656,0,0,1-.68121-.62491,6.16889,6.16889,0,0,1-1.23668-1.78652,1.89117,1.89117,0,0,1-.20267-.69247c-.02065-.34905.11822-.62491.57987-1.156.15012-.17265.18953-.24021.18953-.33779s-.05067-.14638-.2402-.244a1.31077,1.31077,0,0,1-.49918-.48979c-.13887-.23082-.20079-.29275-.28524-.29275s-.08632.01689-.13512.05817Zm.26648.65306a.75248.75248,0,0,1,.24208.29463c.03.08069.03.08444-.01877.18015a1.59779,1.59779,0,0,1-.20079.27023l-.15388.17265-.17077-.17828c-.18766-.19517-.244-.28149-.24208-.37157a.56943.56943,0,0,1,.28712-.38282.2068.2068,0,0,1,.25709.015Zm.11259,2.99505a4.62642,4.62642,0,0,1,.26648.53859c.13136.31526.21393.40347,1.46,1.56883l.304.28337-.06943.01314a4.93464,4.93464,0,0,0-.97583.28712c-.17828.0638-.33591.11447-.35092.11447s-.01126-.03566.02439-.14638a1.04758,1.04758,0,0,0,.05067-.4166.98565.98565,0,0,0-.06193-.45039,3.84345,3.84345,0,0,0-.18578-.41285c-.06756-.12948-.20268-.38658-.30026-.57236-.28524-.54609-.3528-.608-.50293-.47666a5.21368,5.21368,0,0,0-.60614.88951,1.8264,1.8264,0,0,0-.24583,1.32863c.03565.18016.03565.19142.00563.21394-.04129.03-.06756.02439-.45039-.11823a3.77874,3.77874,0,0,0-.745-.22331.25173.25173,0,0,1-.107-.02628.698.698,0,0,1,.12948-.19516.54457.54457,0,0,1,.13324-.09759A11.26232,11.26232,0,0,0,29.664,6.7194c.06756-.09758.26085-.42974.42974-.7375l.30589-.55923.08632.16514c.0488.09008.122.22332.16515.2965Zm.25147,1.8203a1.03612,1.03612,0,0,1,.0319.73563c-.09383.25522-.37157.56861-.50293.56861a.52615.52615,0,0,1-.34529-.19892.82345.82345,0,0,1-.23646-.39784.80137.80137,0,0,1-.03377-.33779c.01313-.30588.05442-.39408.47478-1.0584l.11259-.1764.22144.3772C30.74872,7.42312,30.87257,7.64268,30.9026,7.70461Zm-3.53739-.19516c.10509.05066.167.17264.19892.39783.02815.197.01126.24584-.10321.30026a.27541.27541,0,0,1-.3772-.197.46779.46779,0,0,1,.045-.48792C27.19256,7.45878,27.25637,7.455,27.36521,7.50945ZM33.665,7.50757a.55687.55687,0,0,1-.01688.63617.2769.2769,0,0,1-.38658.02064.162.162,0,0,1-.05255-.1445,1.02781,1.02781,0,0,1,.09571-.411A.26948.26948,0,0,1,33.665,7.50757ZM29.83481,9.28471a.89231.89231,0,0,1,.30777.66994.85856.85856,0,0,1-.24209.456,1.556,1.556,0,0,0-.16326.21018c-.07506.15012-.16139.18766-.27211.11635-.03-.02065-.16326-.14075-.2965-.26836-.182-.1764-.23833-.24208-.23833-.27774s.06944-.1201.24584-.30964a1.78944,1.78944,0,0,0,.40347-.5367c.06755-.1764.11822-.18766.25521-.06005Zm1.34177-.02815a.67212.67212,0,0,1,.0882.16514.8889.8889,0,0,0,.30026.396c.16138.14075.25522.26085.25522.32466-.00188.11634-.1445.30025-.43725.55922l-.12573.1126L31.0546,10.604a1.25051,1.25051,0,0,1-.37156-.53671.73836.73836,0,0,1,.22706-.73375c.12949-.13323.19705-.152.26648-.07694Zm-3.90145.6981a3.81164,3.81164,0,0,1,.867.29462c.66807.3209,1.06028.73938,1.11658,1.18977l.015.11072-.20455-.18579a3.51992,3.51992,0,0,0-.74689-.54421.93514.93514,0,0,0-.5048-.122,1.16485,1.16485,0,0,0-.77128.32653c-.07319.05817-.137.09946-.1445.092-.01689-.02064-.57049-1.03963-.5855-1.0828a.08873.08873,0,0,1,.06756-.12385,3.32428,3.32428,0,0,1,.89138.045Zm7.24555-.03378c.00375.00375-.13887.28149-.31714.6174l-.32466.61177-.08632-.08257a1.33914,1.33914,0,0,0-.36969-.26273,1.0901,1.0901,0,0,0-1.08092.06944,2.17868,2.17868,0,0,0-.63429.52357.19536.19536,0,0,1-.03754.11635,1.04174,1.04174,0,0,1-.24771.29087c-.03,0-.01689-.0638-.01126-.19517a.69306.69306,0,0,1,.17828-.48416c.04129-.045.12761-.14638.19329-.22707a2.8532,2.8532,0,0,1,1.68519-.92516,2.75291,2.75291,0,0,1,.78254-.06756c.14449.00563.26647.01126.27023.015Zm-3.9052.74688a2.2052,2.2052,0,0,1,.43913.98147,2.7062,2.7062,0,0,1,.0075.94393,1.101,1.101,0,0,1-.396.55547.47066.47066,0,0,1-.39972.02815.71238.71238,0,0,1-.49354-.471,1.77378,1.77378,0,0,1-.03754-.57236,2.50672,2.50672,0,0,1,.11823-.95894,1.4574,1.4574,0,0,1,.35092-.53858c.17077-.15764.23833-.152.411.0319Zm-2.539.50856a1.73487,1.73487,0,0,1,.88763.84447,1.53993,1.53993,0,0,1,.10509,1.18414.98564.98564,0,0,1-.99272.53107c-.33028-.09007-.21956-.15388-.25522-.2721-.07318-.25334.01877-.42036.2327-.42036s.13324.04879.19517.18015c.05817.122.10134.15764.19892.15764a.21562.21562,0,0,0,.23833-.22895.65071.65071,0,0,0-.33029-.48416,1.21774,1.21774,0,0,0-.40534-.07507c-.12949,0-.09008-.00563-.09008-.01125a.66433.66433,0,0,1,.05818-.09383.76414.76414,0,0,0,.14262-.36782c.00938-.10884.00563-.12385-.03941-.17827a.17268.17268,0,0,0-.197-.06381.25522.25522,0,0,0-.06756.11447c-.07507.229-.17828.26273-.33591.1126a.50205.50205,0,0,1-.03566-.78817A.56606.56606,0,0,1,28.07644,11.17632Zm5.14188-.00938a.73635.73635,0,0,1,.31152.3284.32763.32763,0,0,1,.04879.23083.55454.55454,0,0,1-.04128.17264,1.07979,1.07979,0,0,1-.27961.29463c-.0488.02627-.05818.02439-.10322-.00751a.47016.47016,0,0,1-.0957-.15013.749.749,0,0,0-.07319-.14449.13439.13439,0,0,0-.19141.02439c-.06193.06193-.05442.06944-.05442.15764a.72431.72431,0,0,0,.11635.3847.49249.49249,0,0,0,.107.06568c.05255.02252.0563.02815.02815.03941a2.0987,2.0987,0,0,1-.259.03941,1.17594,1.17594,0,0,0-.30213.06568.61919.61919,0,0,0-.3209.45413.21517.21517,0,0,0,.23082.259c.15763,0,.137-.03191.20079-.15764a.50916.50916,0,0,1,.10134-.14262.23834.23834,0,0,1,.334.09571.46855.46855,0,0,1-.17452.51794c-.30776.18015-.88576-.08445-1.08092-.49543a.65287.65287,0,0,1-.06568-.35843,1.63862,1.63862,0,0,1,.25709-.9702,1.73217,1.73217,0,0,1,.66244-.62866.68931.68931,0,0,1,.64368-.07506Zm-11.00625.52357c.22707.0319.29275.08257.28712.22332a.95263.95263,0,0,1-.05442.36218c-.01877.015-.07131.015-.19892-.00188-.33028-.04128-.37157-.07506-.37157-.289s.05817-.34342.16889-.3209c.02628.00563.10134.01689.1689.02627ZM38.80121,11.683c.08069.04129.11259.11823.11259.27211s-.0319.23082-.11635.274a1.388,1.388,0,0,1-.43912.05067c-.03941-.015-.0638-.11447-.0638-.26085,0-.22331.03378-.26647.24959-.30588a.72523.72523,0,0,0,.14074-.03754c.04316-.02627.05255-.02439.11635.00751Zm-13.42895.63242a.1778.1778,0,0,1,.03.09007,1.0054,1.0054,0,0,0,.04128.18391c.06568.22519.0563.23645-.289.31152a1.03886,1.03886,0,0,0-.78629.65118c-.0319.08632-.05067.11447-.08632.12385a.21134.21134,0,0,1-.19705-.09758c-.02439-.05442.00563-.15013.12011-.36594a2.01533,2.01533,0,0,1,.88012-.852C25.26342,12.26475,25.3291,12.25349,25.37226,12.31542Zm10.25749-.01314a2.58419,2.58419,0,0,1,.8182.69247,1.26321,1.26321,0,0,1,.27023.51231c0,.14262-.20455.23457-.2646.11635-.00751-.015-.0488-.09946-.09008-.18766a.91778.91778,0,0,0-.715-.533c-.34717-.06568-.35843-.07506-.29837-.28524a1.03574,1.03574,0,0,0,.03565-.20079c0-.13512.08069-.17265.244-.11448Zm-11.8601.80694a.74114.74114,0,0,1-.11635.2965l-.04317.05255-.05817-.04316a.88235.88235,0,0,1-.1201-.11823c-.03566-.04129-.09758-.11072-.13887-.15576l-.07507-.07882h.55173Zm13.763-.0244c-.17264.29463-.33779.41849-.426.319a1.33354,1.33354,0,0,1-.107-.32652c0-.04692.12386-.015.274-.015s.27022.00563.259.02252Zm-7.78976.24959c.17077.14262.27586.26836.27586.32465s-.06943.16515-.27211.34154c-.23269.20268-.27586.259-.28524.37345-.01126.11635.03378.18015.21206.31339a.89592.89592,0,0,1,.25146.27023c.12949.19892.167.319.12573.4166a.23.23,0,0,1-.05254.08257,1.36,1.36,0,0,1-.27023.02815c-.13324.00751-.41661.03941-.62866.07132-.21018.03-.38658.05442-.39034.05066a.37044.37044,0,0,1,.03941-.09946,1.74035,1.74035,0,0,0,.137-1.24794c-.06005-.20455-.05254-.22331.122-.34342a1.59806,1.59806,0,0,0,.4973-.58549c.0319-.05818.06756-.09946.08633-.09946a.51494.51494,0,0,1,.152.10321Zm1.56133.00563a.36989.36989,0,0,0,.1445.182,1.1932,1.1932,0,0,1,.42036.68121,1.40807,1.40807,0,0,1,.01876.43349c-.0075.16139-.01313.32465-.01126.36219a2.06409,2.06409,0,0,0,.16514.49729.45719.45719,0,0,1,.04129.09571c0,.00938-1.3474-.14262-1.36805-.15951a1.26566,1.26566,0,0,1,.1126-.41285,1.32861,1.32861,0,0,1,.36218-.38846.3064.3064,0,0,0,.14263-.25709c0-.10321-.01126-.09946-.07694-.17452a1.38544,1.38544,0,0,0-.21581-.182c-.18954-.12761-.3453-.28149-.3453-.34342a1.05781,1.05781,0,0,1,.53483-.43913c.0244.00375.04879.03753.07507.10509Zm6.67319.08632a.83954.83954,0,0,1,.06756.22144.19873.19873,0,0,1-.03565.16515c-.06381.09195-.1445.11447-.40535.10884l-.21581-.00563.1201-.17828a1.78128,1.78128,0,0,1,.39409-.43162c.04128,0,.045.05443.07506.12011ZM23.0359,13.417c.06943.05067.10508.09758.21393.29463l.08445.15388-.06005.01126c-.03191.0075-.12949.01689-.21769.02439-.15388.00939-.16326.00939-.21768-.0394a.3163.3163,0,0,1-.08258-.30964.32575.32575,0,0,1,.0807-.19142c.02815-.01876.137.01314.19892.0563Zm3.86579-.00375a.3201.3201,0,0,1,.17077.24208c0,.08257-.08257.1764-.18954.25334l-.05254.03566-.11072-.092c-.14262-.1201-.16514-.1764-.12573-.33028.03941-.14637.07319-.18578.15763-.17077a.531.531,0,0,1,.15013.06193Zm7.22678.00188a.25226.25226,0,0,1,.08257.28336c-.04879.11635-.22331.2646-.274.23458a.69066.69066,0,0,1-.21206-.20268.32817.32817,0,0,1,.15576-.33966.16256.16256,0,0,1,.24771.0244Zm-10.10173.623a1.61808,1.61808,0,0,1,.39972.40722c.22706.3284.31526.6812.21205.84634a.25192.25192,0,0,1-.33216.05442,6.28967,6.28967,0,0,1-.51606-.62115c-.14074-.23457-.2008-.45977-.1445-.54609a.47656.47656,0,0,1,.32653-.14825.254.254,0,0,0,.05442.00751Zm6.54558.0638a.35307.35307,0,0,1,.14825.26836c-.00188.08632-.03566.14637-.2083.37532l-.10322.13511-.14074-.16326c-.16326-.18766-.22144-.29838-.20455-.38658.0319-.16514.25522-.33028.39221-.29088a.44158.44158,0,0,1,.11635.06193Zm6.41421-.03941a.62555.62555,0,0,1,.122.07694.13857.13857,0,0,1,.06.13512,1.4909,1.4909,0,0,1-.42223.78629c-.27961.31339-.2965.32841-.37157.32841a.29013.29013,0,0,1-.22707-.11072.81265.81265,0,0,1,.09571-.62866,1.82408,1.82408,0,0,1,.4654-.578.35342.35342,0,0,1,.27773-.00938Zm-14.13267.19141c.349.045.44664.092.44664.22144s-.06381.15576-.23646.07507c-.107-.05067-.11822-.05255-.40909-.04692a.88615.88615,0,0,0-.34155.0319,1.02569,1.02569,0,0,0-.15388.17453c-.137.17828-.23457.26648-.2965.26648s-.07882-.03-.13136-.07882a1.55241,1.55241,0,0,1-.27023-.33216.9886.9886,0,0,1,.41473-.17077,2.27833,2.27833,0,0,0,.2965-.0882,1.15992,1.15992,0,0,1,.68121-.05254Zm15.72778.03754c.07507.02627.21957.06943.32278.0957.3209.0807.33216.08445.3772.12949.07318.07319.05817.11447-.09946.26647-.152.14638-.24021.21206-.28525.21206s-.13136-.10884-.25709-.24208l-.2327-.24021-.20267-.01313a1.05427,1.05427,0,0,0-.51982.06568c-.10133.045-.14825.03566-.17827-.03941-.04692-.11259.03-.19517.21956-.23457a1.588,1.588,0,0,1,.85573,0Zm-10.13551.07881c.06568.0563.09008.1445.09008.31339a1.543,1.543,0,0,1-.09946.53483.23418.23418,0,0,1-.334.12011c-.10509-.06193-.15576-.259-.1445-.54985a.38734.38734,0,0,1,.19329-.38845c.09947-.07507.12011-.08257.18391-.07507a.24974.24974,0,0,1,.11072.045Zm4.10225-.02252a.39459.39459,0,0,1,.27586.28149.64236.64236,0,0,1,.01126.319c-.03566.33215-.1126.44287-.28524.40534-.182-.04128-.25334-.15951-.28337-.4654-.0319-.34529-.00188-.50668.10321-.54984.05818-.02252.06943-.02252.17828.00938Zm5.64293.54234a.5371.5371,0,0,1,.30026.6174c-.03.07507-.12761.16327-.17828.16327s-.18391-.1689-.20643-.274c-.04128-.1839-.122-.22706-.22707-.122a.16735.16735,0,0,0-.05442.14825.61123.61123,0,0,0,.02815.1839.67721.67721,0,0,1,.02815.137c0,.03565-.0075.04128-.04128.03378a1.43763,1.43763,0,0,0-.14825-.02252c-.10134-.01314-.107-.01126-.15388.04691-.07131.08445-.06568.14638.03378.289a1.30352,1.30352,0,0,1,.08444.13324c0,.02064-.137.00751-.20267-.01877a.31756.31756,0,0,1-.19329-.21393A.85965.85965,0,0,1,37.467,15.089a.68046.68046,0,0,1,.72437-.19892Zm-15.17606.0319a.777.777,0,0,1,.56674.77316c0,.37344-.03941.28337-.137.3847a.44356.44356,0,0,1-.22144.13137c-.01126-.00376.015-.0563.0563-.11823.09008-.13324.09946-.20643.0319-.27774-.05817-.0638-.11072-.07506-.24208-.05442-.14637.02252-.18578-.00188-.1445-.09383a.63455.63455,0,0,0,.02815-.21393c0-.18766-.0319-.23833-.13887-.22895-.06192.00563-.06943.01314-.0957.09008a1.32227,1.32227,0,0,1-.06005.14075.6441.6441,0,0,0-.04129.10884c-.03.12573-.11259.1445-.23457.05442a.32189.32189,0,0,1-.07694-.40347C22.426,14.89574,22.6587,14.8,23.01525,14.922Zm2.33449.29088a.23239.23239,0,0,1,.10884.21017c0,.09383-.03753.12949-.11822.10322a1.14309,1.14309,0,0,0-.14262-.03378c-.09008-.015-.152-.06381-.152-.122a.28573.28573,0,0,1,.0882-.18578.27459.27459,0,0,1,.21581.02814Zm10.34382.01126a.218.218,0,0,1-.00376.22706.33765.33765,0,0,1-.12573.05067.504.504,0,0,0-.1445.0563l-.05066.03753-.01314-.06756a.39879.39879,0,0,1,.04129-.274.221.221,0,0,1,.18953-.06943c.06-.00188.08445.0075.107.03941Zm-9.73768.1445a.65382.65382,0,0,1,.334.55922c.00375.10509-.00188.12573-.03566.14825-.03378.0244-.045.02065-.11259-.03753a.72421.72421,0,0,1-.13324-.17452,1.80059,1.80059,0,0,1-.16889-.54985A.29167.29167,0,0,1,25.95588,15.36865Zm8.98328-.00751c.02627.0563-.00375.16139-.1201.441-.08444.19892-.14262.274-.22707.29275a.07529.07529,0,0,1-.092-.03c-.04691-.0563-.04316-.09946.02252-.30025a.65076.65076,0,0,1,.25146-.39034C34.88287,15.30109,34.911,15.29921,34.93916,15.36114Zm-10.81859.30964a.22842.22842,0,0,1,.05254.349c-.09758.09759-.05254.04129-.10508.02628a.16222.16222,0,0,1-.13324-.13324c-.015-.25334.04316-.33028.18578-.24208Zm12.68769.05066a.31064.31064,0,0,1,.02064.21769c-.03753.08257-.15763.11447-.2083.05442a.2.2,0,0,1,.03565-.28336C36.7088,15.68016,36.78949,15.68579,36.80826,15.72144ZM25.087,15.85656c.05817.06568.06193.092.03.22144-.01126.05067-.02815.1201-.03565.15764-.02252.09383-.07507.11447-.244.09383a.28438.28438,0,0,1-.18766-.06944c-.04692-.045-.05442-.06568-.05442-.15576a.40709.40709,0,0,1,.11635-.28524.326.326,0,0,1,.37531.03753Zm10.94432-.06568a.28393.28393,0,0,1,.16139.22894c.04129.2008-.02252.27774-.2646.31152-.20455.02815-.24584-.01877-.27023-.29463-.01126-.13886-.00938-.15388.02627-.18578a.57774.57774,0,0,1,.25146-.08445A.2628.2628,0,0,1,36.03134,15.79088Zm-6.3429.08445c.015.02439-.09383.1839-.13511.197-.045.015-.10322-.00751-.21957-.07882-.0957-.06005-.09383-.06755.03566-.10884a.68824.68824,0,0,1,.319-.00938Zm1.72835.00375c.13511.03378.13324.0319.07319.09383a.29325.29325,0,0,1-.21394.11072c-.07319,0-.08257-.02252-.15576-.09195l-.0957-.092.0638-.01876A.71857.71857,0,0,1,31.41679,15.87908Zm-5.763.03941a1.19848,1.19848,0,0,0,.09383.1839.596.596,0,0,1,.08632.1933c0,.07131-.09946.17077-.20267.20267-.06943.02064-.08257.01877-.11635-.01126a.2525.2525,0,0,1-.04879-.25709,1.48853,1.48853,0,0,1,.16139-.3528c.01689,0,.01876.01876.02627.04128Zm4.87916.06005a.61028.61028,0,0,1,.21768.24208c0,.04316-.05254.08257-.11822.15013-.15764.16514-.259.18578-.40722.08445a.37637.37637,0,0,1-.1764-.24959c0-.07319.11634-.2083.27023-.25522A.23125.23125,0,0,1,30.53291,15.97854Zm4.71777.07131a1.1632,1.1632,0,0,1,.0807.16139.41924.41924,0,0,1-.02065.27586c-.06193.07506-.28712-.00751-.34529-.12949-.03941-.08257-.0244-.1201.09946-.26085a.59466.59466,0,0,0,.09571-.12761c0-.04128.03378-.00938.09008.0807Zm-2.39642.1201c.09946.045.107.05255.07882.07507a.23618.23618,0,0,1-.22519.03753c-.06568-.03378-.12948-.13512-.09571-.14825a.33463.33463,0,0,1,.24208.03565Zm-3.81888.07131c.03753.04129.04129.05818.0244.10134-.03.07694-.06381.107-.18391.16139-.09008.03941-.11823.045-.17264.03-.06756-.01876-.14826-.08069-.14826-.11447a.33721.33721,0,0,1,.09759-.16139.27412.27412,0,0,1,.23832-.07318c.08257.00375.11072.015.1445.05629Zm3.027-.02627c.08444.04129.17077.137.17077.18766s-.09571.12386-.16514.14075a.22163.22163,0,0,1-.1051-.00939.82871.82871,0,0,1-.26647-.21581.34241.34241,0,0,1,.08445-.08069A.2313.2313,0,0,1,32.06234,16.215Zm-7.953.29087c.05067.0807.04879.22707-.00375.25334-.03.01689-.04879.015-.08445-.00938a.31156.31156,0,0,1-.09758-.37157l.02252-.07506.0638.07319a1.00267,1.00267,0,0,1,.09946.12948Zm12.77776-.11072a.407.407,0,0,1,.01877.12761c0,.13887-.13887.28525-.23457.24771-.04129-.015-.03754-.1839.00938-.2721a.34391.34391,0,0,1,.17452-.152C36.86268,16.34635,36.87769,16.36887,36.88707,16.39514Zm-9.2704.08257c.05067.05067.04692.07507-.02251.18016a.32113.32113,0,0,1-.27586.1764c-.10884,0-.2252-.06381-.2008-.15764.02064-.08069.09946-.13886.25334-.18766.17828-.05629.19892-.05817.24584-.01126Zm2.1412.02815c.04129.02628.07319.06193.07319.0807,0,.03378-.0882.10134-.17452.13324a.78553.78553,0,0,1-.34342.00187l-.05067-.02064.09195-.09571C29.52893,16.42517,29.60775,16.40641,29.75787,16.50586Zm3.64811-.02439c.13887.05066.244.17452.21581.25146a.17816.17816,0,0,1-.15576.10134.3636.3636,0,0,1-.30588-.25334C33.13763,16.45332,33.22583,16.41766,33.406,16.48147Zm-2.00233.09758.12386.1201-.08257.02252c-.18016.04879-.45977-.0319-.45977-.13136s.10509-.13136.21206-.13136S31.28918,16.46833,31.40365,16.57905Zm2.95565-.00375a.07889.07889,0,0,1,.0319.07131.08858.08858,0,0,1-.0563.08445c-.0807.04128-.14262.03565-.18578-.02065-.05255-.06755-.05067-.13511.00375-.15576A.33446.33446,0,0,1,34.3593,16.5753Zm-12.288.04316c.182.0638.25334.14074.25334.27586,0,.23457-.07131.31714-.19891.23082a.28934.28934,0,0,0-.09008-.04691.54192.54192,0,0,1-.11823-.04692.22921.22921,0,0,1-.1445-.27211c.015-.10884.06756-.18766.12573-.18766a.48794.48794,0,0,1,.17265.04692Zm15.88729.02064a1.15636,1.15636,0,0,1,.167.42036c.03378.18391-.00375.39409-.07694.43349-.02815.015-.137-.02251-.52733-.182-.27211-.10885-.4973-.2008-.49918-.20455a.25708.25708,0,0,1,.0488-.0882,1.82814,1.82814,0,0,0,.09383-.15764.60061.60061,0,0,1,.20079-.23457c.0488-.0319.08633-.03378.30776-.02815.19892.0075.2571.015.28524.04128Zm.974-.03a.26615.26615,0,0,1,.07506.21768c0,.10321-.06193.18015-.22894.24584a.78583.78583,0,0,0-.18578.0957l-.05255.04316-.02064-.07131c-.07695-.27023-.015-.42223.20642-.51794A.25316.25316,0,0,1,38.93257,16.60908Zm-6.17964.05066a2.24139,2.24139,0,0,1,.22143.28525c.01314.02251-.01313.02439-.152.01689-.1689-.01126-.38283-.07319-.38283-.1126s.03-.06005.06756-.11072c.10509-.1445.15764-.16139.24584-.07882Zm-4.56765-.01126a.54021.54021,0,0,1,.16515.152c.015.02627.00375.03941-.05818.07131a.68333.68333,0,0,1-.37157.07882L27.84,16.93748l.07319-.11447c.07506-.11635.15763-.19517.20455-.19517A.09241.09241,0,0,1,28.18528,16.64848Zm6.75951.319c.0882.02439.22144.15012.21206.19892-.0075.04879-.14074.107-.24021.107s-.10509-.015-.13886-.03565a.52771.52771,0,0,1-.16139-.20643c0-.03566.03565-.03378.08069-.04692.04317-.01313.0882-.02627.09759-.02814a.25578.25578,0,0,1,.15012.01125Zm-8.84629.02064c.04129.01126.07319.03.07319.04128a.42712.42712,0,0,1-.15576.197.32813.32813,0,0,1-.28524.01126c-.07881-.03191-.09758-.07132-.0638-.13324A.379.379,0,0,1,26.0985,16.98815Zm.82571.06568a.43737.43737,0,0,1,.092.06193.82074.82074,0,0,1-.27961.12385c-.09383.015-.107-.00938-.0563-.10884C26.75531,16.98064,26.77971,16.97314,26.92421,17.05383Zm7.11982-.03941c.03941.01689.14637.17265.13136.19517-.01877.03-.13324.02064-.24208-.01877-.1445-.05442-.15763-.07881-.08257-.13887a.20115.20115,0,0,1,.19329-.03753Zm-1.43935.22519c.42035.08445.93079.2008,1.55007.35656a3.86942,3.86942,0,0,1,.66994.20642,5.06608,5.06608,0,0,1,2.60848,2.7192c.05254.12385.259.715.45788,1.31362a20.68288,20.68288,0,0,0,1.11658,2.91248,10.95722,10.95722,0,0,0,.95519,1.60637A5.5786,5.5786,0,0,0,41.37027,27.803a1.72259,1.72259,0,0,1,.77128,1.21979,10.73641,10.73641,0,0,1-.18578,5.20756c-.32653,1.28172-.75814,2.62161-1.67768,5.20757a18.43949,18.43949,0,0,0-.623,1.95166,15.53227,15.53227,0,0,0-.47853,3.95962,17.20738,17.20738,0,0,0,.27211,3.27279c.04691.29087.08444.53483.08444.53858,0,.02065-.1201-.07694-.274-.22331a2.44047,2.44047,0,0,1-.71123-1.16161c-.04692-.17265-.18766-1.09969-.24208-1.59136a14.48437,14.48437,0,0,1-.0882-2.22377,7.65358,7.65358,0,0,1,.63992-2.79613c.84259-1.9573,1.29673-3.10953,1.657-4.20358a15.29,15.29,0,0,0,.78254-3.49423c.07507-.67182.04129-.85385-.19516-1.07154-.08445-.07694-.28525-.18578-.30589-.16514s0,.10133.01126.21205a3.018,3.018,0,0,1-.01689.81257,6.90426,6.90426,0,0,1-.68871,2.07177c-.36406.72811-.2402.46539-1.23105,2.20688-1.10531,1.9404-1.4431,2.54467-1.56508,2.79425a5.42819,5.42819,0,0,0-.44475,1.32864,9.06115,9.06115,0,0,0-.12573,1.08467c-.06193.70373-.05067.6418-.11823.65306a.38822.38822,0,0,1-.06193.00563c-.00188-.00187-.04691-.16889-.09758-.36969a2.11326,2.11326,0,0,1-.09571-1.04339c.06943-.66807.17077-1.368.33967-2.35138a11.75471,11.75471,0,0,1,.84822-3.04947,9.08964,9.08964,0,0,0,.73562-2.69856c.06756-.39033.122-.72061.122-.73187.00188-.03941.05067.06756.20831.44851.08257.20642.19329.45413.244.55171a1.56915,1.56915,0,0,0,.69622.73l.15575.08069.00563-.16138a.41226.41226,0,0,0-.03565-.24021,1.57347,1.57347,0,0,1-.15951-.76565,3.48951,3.48951,0,0,1,.39033-1.19164,23.58,23.58,0,0,0,.90265-2.27069,2.86924,2.86924,0,0,0,.1764-.9383,2.25042,2.25042,0,0,0-.11823-.8895,2.70065,2.70065,0,0,0-.7-1.07905,12.66487,12.66487,0,0,1-1.05277-1.24043,15.4287,15.4287,0,0,1-2.0455-3.59369A12.49926,12.49926,0,0,0,35.18314,19.287a3.84743,3.84743,0,0,0-1.57071-1.05465c-.22144-.0882-1.09969-.38846-1.1072-.37907-.00188.00187-.07318.32089-.15951.70747-.08444.38658-.15763.71874-.16139.73563-.0075.02815.03753.0319.53108.03753a2.139,2.139,0,0,1,.608.03753,7.5168,7.5168,0,0,1,.80318.56861,2.77987,2.77987,0,0,1,.289.28149c.11072.13137,1.24981,1.83156,2.13744,3.19022.26273.40159.8182,1.24982,1.23293,1.88223.41285.63429.75252,1.15411.75252,1.15787s.10509.16514.23269.3603a5.90776,5.90776,0,0,1,.78067,1.52568,4.12332,4.12332,0,0,1,.22519,1.36241,8.193,8.193,0,0,1-.27211,1.856,6.7423,6.7423,0,0,0-.26084,1.9329,3.56162,3.56162,0,0,0,.03941.74126c.02252.11823.03941.21581.03753.21956a3.20664,3.20664,0,0,1-.30776-.44663,4.17126,4.17126,0,0,1-.45414-2.55968,11.50114,11.50114,0,0,0-.09758-2.39267,6.25937,6.25937,0,0,0-1.049-2.2688c-.12385-.18766-.22519-.34529-.22519-.35092,0-.03-.72061-1.06216-1.27984-1.83157-.501-.69058-1.43747-1.9404-1.76025-2.35137-.51606-.65494-1.12971-1.38494-1.338-1.58948a.72512.72512,0,0,0-.41473-.22144c-.1689,0-.33967.12948-.49918.37907-.10134.15576-.09946.182.015.11635a1.68029,1.68029,0,0,1,.50668-.2327c.182,0,.38659.17077.74314.6174.66431.83133,2.2857,2.94063,2.59158,3.37037.27211.37907.79756,1.14285.79193,1.14848a1.75882,1.75882,0,0,1-.19141-.03566,2.31148,2.31148,0,0,0-.59113-.04128,5.83132,5.83132,0,0,0-1.18226.1201c-.18016.03-.48792.07694-.685.10322a5.34616,5.34616,0,0,0-1.20853.25334.73545.73545,0,0,0-.274.28712.224.224,0,0,0-.00939.25334.19787.19787,0,0,0,.11635.11635c.11823.05442.24771.04691.64555-.03566.19517-.04128.54985-.10884.78629-.15013.23833-.04316.58363-.107.76941-.14262s.42411-.07506.53108-.0882a.72825.72825,0,0,0,.19141-.03753,1.225,1.225,0,0,1,.26272-.015,1.03775,1.03775,0,0,1,.26273.01688c0,.00939.05067.02065.11072.02815a1.75977,1.75977,0,0,1,.55547.17077,1.59106,1.59106,0,0,1,.72812.68121l.12761.18766-.0319.0638a.40138.40138,0,0,1-.19141.21018.74585.74585,0,0,0-.19141.1689l-.10322.122-.02439-.11634c-.04317-.20268-.03941-.2008-.15388-.04692l-.10322.137-.13136.00564a7.64359,7.64359,0,0,1-1.01336-.11823,4.92026,4.92026,0,0,0-1.16161-.08445,2.0406,2.0406,0,0,0-.85761.33967,1.93714,1.93714,0,0,0-.40535.3847.79464.79464,0,0,0,.19517-.10509,3.71283,3.71283,0,0,1,1.10531-.50105,1.66811,1.66811,0,0,1,.52357-.05067,2.1681,2.1681,0,0,1,.775.122,3.04334,3.04334,0,0,1,.4485.19892c-.00563.00375-.17639-.01876-.38095-.04879a5.087,5.087,0,0,0-1.06778-.10322,1.64556,1.64556,0,0,0-.54046.05067,2.32237,2.32237,0,0,0-1.04339.63992l-.15951.15952.0319.06755c.01689.03566.03941.06569.05067.06569s.21017-.09383.44287-.20643c.23458-.11447.43162-.20643.43725-.20643a5.64026,5.64026,0,0,1,.08633.65306,1.58262,1.58262,0,0,1-.20455-.0319,2.01154,2.01154,0,0,0-.31527-.03941c-.11072,0-.11635.00188-.20079.0882l-.08633.0882.1126.02439a3.03052,3.03052,0,0,1,.78629.2327c.09383.04692.244.12573.334.17077a1.86361,1.86361,0,0,0,2.11493-.20267,2.64083,2.64083,0,0,0,.486-.46727,2.36747,2.36747,0,0,0-.593.27774,3.35917,3.35917,0,0,1-.6981.34154,1.18088,1.18088,0,0,1-.8257-.045l-.07882-.03565.09946-.03191a.81191.81191,0,0,0,.33967-.19329,1.108,1.108,0,0,0,.30589-.69809c.01688-.10884.0319-.197.03378-.19892s.13136.04316.28524.09946a2.44293,2.44293,0,0,0,.84072.20643.96149.96149,0,0,0,.33778-.02065c.28525-.07694.45039-.31527.52733-.75439a1.32114,1.32114,0,0,1,.05255-.21206l.02439-.06005.06944.09008a2.65428,2.65428,0,0,1,.44663.88763,5.644,5.644,0,0,1,.00938,1.89537c-.122,1.64953-.22519,2.77549-.33967,3.73443a5.46,5.46,0,0,1-.5611,2.00046,5.90809,5.90809,0,0,1-1.278,1.69644,18.97474,18.97474,0,0,1-2.97253,2.35513,5.54232,5.54232,0,0,1-1.10157.62678,4.10391,4.10391,0,0,1-3.43417-.27961,5.49949,5.49949,0,0,1-.94393-.62866c-.19142-.14637-.58363-.43912-.87262-.65118-1.29673-.95143-1.73023-1.32112-1.84282-1.567-.09571-.2083-.0807-.3603.09946-.98521a3.60525,3.60525,0,0,0,.20642-1.216,8.16308,8.16308,0,0,0-.33215-1.475,3.84945,3.84945,0,0,0-1.13722-1.7321,1.35593,1.35593,0,0,1-.40722-.55172c-.05442-.19141-.182-1.80716-.23833-3.02507a3.66926,3.66926,0,0,1,.441-2.402c.05817-.0882.10509-.16514.10509-.1689s.06193-.0882.13887-.18578a5.90947,5.90947,0,0,0,.50856-.8182c.152-.27586.58925-1.004.86886-1.445a16.48464,16.48464,0,0,1,1.23481-1.71709,11.348,11.348,0,0,1,1.13346-1.13534,3.83,3.83,0,0,1,1.65329-.81069,2.57835,2.57835,0,0,1,.62678-.04316,2.7529,2.7529,0,0,1,.52545.0244,1.47265,1.47265,0,0,1,.90827.52544,2.39429,2.39429,0,0,1,.29463.51607c.03.08445.182.27774.19892.25709a2.583,2.583,0,0,0-.05067-.53858,1.18028,1.18028,0,0,0-.90077-.87637,3.54814,3.54814,0,0,0-1.15035-.18016,2.48552,2.48552,0,0,0-.80694.09383,3.81,3.81,0,0,0-1.6364.94018,9.47908,9.47908,0,0,0-1.97981,2.35326c-.09195.15388-.26272.43349-.38095.61927-.1201.18579-.28149.43913-.36218.56486-.07882.12385-.24771.39972-.37345.60989s-.3528.56674-.50293.79381c-.152.22519-.28524.426-.2965.44663-.03941.06756-.36218.47853-.51043.64742a7.96293,7.96293,0,0,1-.84635.837c-.456.39972-.80131.72812-1.04339.98709a1.333,1.333,0,0,0-.29838.426l-.11259.22331-.02252-.10133a1.47244,1.47244,0,0,1,.08632-.92517,4.48,4.48,0,0,1,1.12971-1.80716,8.57325,8.57325,0,0,0,2.10742-3.14143,15.54685,15.54685,0,0,1,.80882-1.734,10.72813,10.72813,0,0,1,1.19727-1.63451,30.10376,30.10376,0,0,1,2.21626-2.22753,1.84256,1.84256,0,0,1,1.53131-.27961,1.877,1.877,0,0,1,.85573.49355,2.07421,2.07421,0,0,1,.53107.84822c.03378.09195.09571.23645.13512.319a8.406,8.406,0,0,0,.52357.897c.0244-.0244.2083-.67746.30588-1.08468.22332-.92516.37345-1.56884.39221-1.69269a.63543.63543,0,0,0,.00188-.23082c-.01126-.05067-.01313-.09383-.00375-.09383s.16514.03.349.06755Zm3.05885.24584a.85371.85371,0,0,1,.1126.22144,1.27392,1.27392,0,0,1-.28337-.045c-.06756-.02627-.1201-.10885-.09383-.15013a.2102.2102,0,0,1,.16889-.07694C35.63726,17.43478,35.63726,17.44792,35.66353,17.48545Zm-10.94808-.01689a1.23572,1.23572,0,0,1-.29462.25146.439.439,0,0,1-.1689.03378c-.10321,0-.107-.00187-.0882-.0394a.67131.67131,0,0,1,.23458-.2252.54549.54549,0,0,1,.31714-.02064Zm11.62178.00563a.46042.46042,0,0,1,.19516.12573.76194.76194,0,0,1,.11072.11635c0,.03378-.16139.04128-.23457.01126-.09571-.04129-.334-.21956-.31527-.23833a.27674.27674,0,0,1,.13324-.03378.72933.72933,0,0,1,.11072.01877Zm-12.62388.10134c.03378.04128-.00188.11072-.07882.16138a.29923.29923,0,0,1-.26647,0c-.05255-.02064-.05255-.02252-.01877-.06193a.552.552,0,0,1,.28149-.12761c.07131,0,.06943.01314.08257.02815Zm13.596.02064a.379.379,0,0,1,.10321.07319l.04129.045-.10134.03c-.11072.0319-.15013.0244-.21581-.03378C37.02219,17.60743,37.15355,17.5211,37.30931,17.59617Zm-14.13455.3847a.10184.10184,0,0,1,.02065.18391.265.265,0,0,1-.3209-.03941c-.09383-.0882-.0244-.16514.15013-.16514S23.15225,17.96961,23.17476,17.98087Zm14.74444.01689c.045.045.04692.05442.00751.11072-.09383.13136-.39784.12386-.43162-.01126-.01126-.03941-.00375-.05817.03753-.09383.04317-.03753.07131-.04316.2008-.04316s.15388.00563.18578.03753Zm.50481.32841a.55788.55788,0,0,1,.22707.27023.14781.14781,0,0,1-.13136.13323c-.1126,0-.28337-.21956-.25147-.32465.01314-.04691.06193-.107.08633-.107a.15069.15069,0,0,1,.06943.02815Zm-15.90043.02064c.12949.06193.15951.17452.06193.22519a.51057.51057,0,0,1-.37157-.01877.13049.13049,0,0,1,.00939-.197A.34.34,0,0,1,22.52358,18.34681Zm1.50128.18015a7.557,7.557,0,0,0-1.02462,2.35888c-.03.12011-.092.40347-.13887.63242-.04691.22707-.11447.53483-.152.6812A7.77642,7.77642,0,0,1,21.058,25.48164a6.149,6.149,0,0,0-.73187.92891c-.02252.04316-.07882.14638-.12386.22894a3.72953,3.72953,0,0,0-.37157,2.7267,1.50531,1.50531,0,0,1,.03566.21581.77882.77882,0,0,1-.19329.38283,4.9467,4.9467,0,0,0-.95707,3.102A5.989,5.989,0,0,0,19.79313,36.304a7.05628,7.05628,0,0,1,.81632,1.81092,6.81386,6.81386,0,0,1,.21581,2.11305c-.03378.54046-.24583,2.33825-.50856,4.32368-.15576,1.171-.17827,1.36429-.21581,1.82406a9.89647,9.89647,0,0,0,.18391,3.10765l.05818.24959-.04129.03941c-.02252.02252-.04316.03753-.04879.0319s-.11635-.31152-.25146-.68308a16.56281,16.56281,0,0,1-.99648-3.65937,11.94437,11.94437,0,0,1-.00187-3.8095,6.55577,6.55577,0,0,0,.122-1.47313,4.851,4.851,0,0,0-.11447-1.323,7.425,7.425,0,0,0-.44851-1.33238,20.84657,20.84657,0,0,1-1.20853-3.77572,4.01324,4.01324,0,0,1,.01877-1.38493,10.816,10.816,0,0,1,2.20313-5.15127c.28336-.3603.57236-.74313.57236-.75627a1.19629,1.19629,0,0,1,.10509-.17452,12.82035,12.82035,0,0,0,1.11095-2.94439,12.99255,12.99255,0,0,0,.37907-1.36991,4.696,4.696,0,0,1,.563-1.50128c.34529-.68309.59113-1.13535.85385-1.567l.15388-.25335.39221-.14449c.21581-.07882.40347-.1445.4166-.1445A.53031.53031,0,0,1,24.02486,18.527Zm15.06347.28524a.3289.3289,0,0,1,.11071.08258c.04692.05629.10509.23832.08257.26084s-.182-.05254-.24771-.11072a.69752.69752,0,0,1-.10321-.122l-.04129-.06755.04129-.03378c.05254-.04317.07694-.04317.15763-.00939Zm-17.109.02252.122.0319-.05067.05255a.46663.46663,0,0,1-.4091.137c-.07319-.02815-.00187-.1764.10885-.22519C21.82549,18.79907,21.83487,18.79907,21.97937,18.83472Zm16.29451,1.10157c.06568.18766.31152.9064.54609,1.59886a20.084,20.084,0,0,0,1.01149,2.68917,8.22748,8.22748,0,0,0,.63241,1.09218,11.30721,11.30721,0,0,0,1.019,1.308l.1764.19516-.03941.03941-.03941.03941-.16514-.152a7.33828,7.33828,0,0,1-1.2348-1.445,13.83517,13.83517,0,0,1-1.60262-3.75695c-.10509-.3528-.42974-1.49189-.52357-1.8447-.01876-.06568-.01688-.07318.02065-.08819a.22984.22984,0,0,1,.06005-.01689,1.757,1.757,0,0,1,.13886.34154ZM23.42247,21.91047a8.8683,8.8683,0,0,1-1.39431,3.59181,5.53534,5.53534,0,0,1-.57987.685,2.52559,2.52559,0,0,0-.23082.2571.84045.84045,0,0,1-.08257.13324,3.75509,3.75509,0,0,0-.349.66244c-.0638.14449-.16889.38095-.23457.52544a3.83286,3.83286,0,0,0-.15764.39409c-.02064.07131-.05442.19329-.07694.26648-.03.10321-.04691.137-.07319.137s-.04128-.03566-.07506-.167l-.04316-.16514.06568-.1764c.03565-.09758.12573-.35092.197-.563a3.1196,3.1196,0,0,1,.7056-1.32112,8.64938,8.64938,0,0,0,2.03986-3.73444c.04129-.15575.092-.33215.11448-.39408a4.41048,4.41048,0,0,1,.24958-.53108,3.03279,3.03279,0,0,1-.07506.39972Zm19.6236,6.73511c.54234.78254.78442,2.78487.5855,4.85289a9.49661,9.49661,0,0,1-.41285,2.09616,2.82357,2.82357,0,0,1-.20831.44851c-.00375-.00376.03941-.289.09571-.63242a20.27937,20.27937,0,0,0,.37157-3.58242,9.37523,9.37523,0,0,0-.137-1.78277A9.26851,9.26851,0,0,0,42.941,28.5724C42.88656,28.42415,42.89782,28.43353,43.04607,28.64558Zm-21.96934.82758a3.0405,3.0405,0,0,0,.31527,1.08843,6.47085,6.47085,0,0,0,1.55194,1.81655,5.37086,5.37086,0,0,1,1.41871,1.65329,7.84974,7.84974,0,0,1,.44288,1.475,3.81812,3.81812,0,0,1-.00751.91578,1.234,1.234,0,0,1-.13887.35467c-.015-.015-.02815-.27961-.05442-.61552-.02627-.334-.06193-.68871-.07694-.7863a2.37216,2.37216,0,0,0-.22519-.67932c-.2008-.38846-.36969-.55735-1.20853-1.22167-2.01735-1.59511-2.15246-1.71334-2.29508-2.00233l-.06005-.122v-.57236a11.2044,11.2044,0,0,1,.06755-1.39619,1.05026,1.05026,0,0,1,.10509-.18391c.107-.15576.09758-.17265.16514.27586Zm-.22332,2.50526c1.26858,1.08468,1.70583,1.44686,2.26881,1.871a2.73407,2.73407,0,0,1,.93079,1.064,3.73967,3.73967,0,0,1,.30964,1.55946,4.6855,4.6855,0,0,1-.471,2.30822,4.48941,4.48941,0,0,1-.50855.83133,2.04923,2.04923,0,0,0-.18954.28149c-.00751.03378.00188.05818.03941.09383l.05067.05067.31339-.319a4.09833,4.09833,0,0,0,.70935-.89139l.18579-.289.01126.11071a7.98692,7.98692,0,0,1-.00376,1.01525,4.184,4.184,0,0,1-.33215,1.27233c-.03941.08257-.22707.41285-.41661.73375-1.13159,1.916-1.31174,2.29321-1.47125,3.08889a5.60021,5.60021,0,0,0-.1126,1.293,9.7617,9.7617,0,0,0,.0882,1.445,5.18928,5.18928,0,0,1-.06005,1.77339c-.05067.11448-.13511.15013-.44288.18766l-.09383.01126-.0882-.22144c-.04879-.122-.17452-.43725-.28336-.7A6.63252,6.63252,0,0,1,20.617,45.884a3.88329,3.88329,0,0,1,.229-1.47313c.06943-.25334.19329-.62491.8013-2.41143a5.92,5.92,0,0,0,.44664-2.3176,6.03085,6.03085,0,0,0-.182-1.31737,11.294,11.294,0,0,0-1.07717-2.9031,7.50146,7.50146,0,0,1-.61928-1.54632,2.99779,2.99779,0,0,1-.1126-.99835,2.53354,2.53354,0,0,1,.05067-.69809,2.0001,2.0001,0,0,1,.17265-.52733c.03565-.07694.0563-.10321.07506-.09383.01314.00939.21769.18016.45226.38095ZM16.3477,34.0333c.01689.15951.12385.608.411,1.73585a19.22241,19.22241,0,0,1,.62491,2.90873,12.23282,12.23282,0,0,1,.00938,1.69833,7.43342,7.43342,0,0,1-.486,1.95166,8.98327,8.98327,0,0,0-.48228,1.52943,6.96507,6.96507,0,0,0,.29838,3.13017,5.99465,5.99465,0,0,0,.28336,1.11469c.07507.19705.07507.19517.02815.21957-.03.01688-.0563-.01314-.21393-.24772a3.4039,3.4039,0,0,1-.21769-.35467,23.003,23.003,0,0,1-.48416-2.342,3.66722,3.66722,0,0,1-.05067-.73187,4.69386,4.69386,0,0,1,.29838-1.61388,17.20122,17.20122,0,0,0,.71686-2.62724,11.44381,11.44381,0,0,0-.00187-1.82968,8.59175,8.59175,0,0,0-.38658-1.77339,8.34,8.34,0,0,1-.548-2.77736c0-.426.01877-.53671.10885-.68684l.05442-.09195.01313.33779c.00563.18578.01689.38845.0244.45038ZM26.532,39.94647c.52732.364.62866.43725.85948.61552a5.49927,5.49927,0,0,0,1.0509.6981,4.52951,4.52951,0,0,0,1.58385.456,7.36874,7.36874,0,0,0,1.07717,0,4.45362,4.45362,0,0,0,2.25192-.91578c.30963-.22144,1.42058-1.02838,1.48251-1.07717.01689-.01313.02252.381.02252,1.9648v1.97981l-.05067-.0075a12.92106,12.92106,0,0,0-1.81655-.24771,3.47187,3.47187,0,0,0-.96457.09946c-.14825.03378-1.13159.31527-1.30987.37344-.03378.01126-.03.04129.03.32278l.05442.24958h-.26085c-.197,0-.26085-.00563-.26085-.02439s.02065-.14075.04692-.28337a2.59566,2.59566,0,0,0,.04128-.2646c-.00187,0-.11822-.03378-.25709-.07132-.13887-.03941-.411-.11634-.60426-.17264a4.67752,4.67752,0,0,0-1.3474-.23458,6.02085,6.02085,0,0,0-1.22354.1445c-.35843.06005-.65681.10134-.66432.09383s-.04128-.79755-.07506-1.75462-.06381-1.84657-.06944-1.97981a1.39715,1.39715,0,0,1,0-.23833c.00563,0,.18579.12386.40347.274Zm11.19016.85948c-.1201.4729-.24584,1.00585-.28337,1.186a13.03492,13.03492,0,0,0-.22707,2.85055,12.80381,12.80381,0,0,0,.21206,2.22377c.09571.608.1764,1.15411.1764,1.19539s-.0563-.0319-.137-.182a8.21261,8.21261,0,0,1-.5048-3.665,12.36812,12.36812,0,0,1,.68308-3.88831,3.82154,3.82154,0,0,1,.289-.5855c.01313.01314-.09008.39409-.20831.86512ZM33.17141,43.6884c.12948.02065.53483.09759.90452.17078.64179.12948.66807.137.67745.17827.00375.0244.00188.045-.00375.045s-.18954.03378-.40535.07506c-.623.11635-1.09969.2008-1.45436.25522a4.986,4.986,0,0,1-1.29486.01877,1.11735,1.11735,0,0,1-.426-.0807l-.09946-.04879.05817-.107a.32992.32992,0,0,1,.182-.17265,4.29613,4.29613,0,0,1,.67933-.27586A2.77609,2.77609,0,0,1,33.17141,43.6884Zm-4.16605.04692a3.01835,3.01835,0,0,1,.59488.22707c.27961.12386.34342.17077.37907.274.05255.15013-.24771.23646-.882.25335a6.34877,6.34877,0,0,1-1.809-.23083c-.319-.06756-.66807-.13511-.77316-.152-.17453-.02627-.19329-.03378-.19329-.06944a.27117.27117,0,0,0-.01126-.07881c-.00938-.03754-.00188-.04129.11823-.05255.06943-.0075.3603-.03753.64367-.06756A8.88514,8.88514,0,0,1,29.00536,43.73532Zm-1.93665.78067.77316.13886v.14075c0,.33778.12573.411.87074.51794.18766.02627.35655.05442.37719.06193.03191.01313.01689.0319-.11259.16514a.52048.52048,0,0,1-.50481.20643,1.28317,1.28317,0,0,1-.41285-.10509,8.01086,8.01086,0,0,0-1.29673-.34155c-.30964-.0638-.57049-.122-.57987-.13136a1.43828,1.43828,0,0,1,.015-.3209c.04691-.46164.05254-.48791.07506-.47853C26.28429,44.37336,26.64272,44.439,27.06871,44.516Zm7.71657-.12949c0,.00375.02627.10509.0563.22894.06756.26836.07319.41661.01689.48792-.0638.08257-.167.1201-.6099.22707-.23457.05817-.63241.16139-.88763.23457-.25334.07131-.55172.152-.66056.18016-.19141.04879-.2008.04879-.30026.02064a.95243.95243,0,0,1-.39033-.29837l-.09758-.1051.09946-.01126c.05442-.00563.22144-.01876.37157-.03.66807-.04879.80693-.1201.83508-.42223a1.15759,1.15759,0,0,0,.00563-.18766c-.0075-.0319,0-.04879.02065-.05442.21205-.05818,1.54069-.29087,1.54069-.27023Zm-5.55661.501a.69243.69243,0,0,1-.01876.18015c-.00376.00376-.23083-.01313-.50481-.03941-.274-.02439-.49917-.045-.50105-.045a.32636.32636,0,0,1-.00563-.09008V44.805l.51231.03941c.27962.02252.51419.04128.51794.04316Zm3.635-.00751a.38346.38346,0,0,1,.00563.09383c-.015.01314-.99272.1051-1.01149.09383-.02815-.01688-.02439-.17827.00563-.18015.01689,0,.85573-.07882.96457-.09008.01314,0,.02815.03565.03566.08257Zm-2.74547.55923.04692.06193-.18766.32277c-.182.31152-.18954.32278-.24771.32278s-.06193-.00375-.12949-.18766a1.36288,1.36288,0,0,1-.06943-.2327c0-.0638.10133-.15388.25334-.22519.07319-.0319.16139-.07319.197-.09008.0882-.04128.08257-.04316.137.02815Zm1.09406.03566a.8483.8483,0,0,1,.2402.11259.13232.13232,0,0,1,.06568.14262,1.17737,1.17737,0,0,1-.05066.24771c-.04879.14638-.0563.15952-.11072.17078q-.05818.01125-.24771-.29463c-.10509-.167-.19517-.31714-.2008-.334a.106.106,0,0,1,.0244-.07507c.03753-.05254.02252-.05442.27961.03Zm-1.993,1.17287a1.94,1.94,0,0,1,.14638.274.384.384,0,0,0,.15951.20268c.15951.12573.2083.22331.1764.36218a1.84731,1.84731,0,0,1-.54422.74689,1.23464,1.23464,0,0,1-.81819.29463,1.28837,1.28837,0,0,1-.45039-.07882c0-.02627,1.19915-1.9648,1.21416-1.9648a.62774.62774,0,0,1,.11635.16326Zm3.36287.822.58925.95707-.05442.02251a1.4185,1.4185,0,0,1-.52733.07507,1.38572,1.38572,0,0,1-1.06591-.74314c-.152-.22894-.18953-.3284-.16326-.41848a6.48981,6.48981,0,0,1,.61365-.85573c.00938.00375.28336.43725.608.9627Z"/><path class="cls-1" d="M24.93126,25.8138a2.08243,2.08243,0,0,0-.60051.22331,2.00122,2.00122,0,0,0-.45038.37157.81433.81433,0,0,1-.07507.10321c-.02815.03378-.08632.11072-.12761.17265l-.07694.11259.0319.06756c.01689.03566.03941.06568.04692.06568a5.50464,5.50464,0,0,0,.76377-.28149,2.0217,2.0217,0,0,1,.59864-.18766c.10884,0,.04128-.00938.04128-.01876a.87243.87243,0,0,1,.26273-.01877.8026.8026,0,0,1,.26272.01877c0,.01126.03.01876.06568.01876.06756,0,.4654.07131,1.80154.3209a5.29077,5.29077,0,0,0,.92141.14263c.18015-.01314.26835-.08445.29838-.23833.02251-.1201-.11072-.31527-.29275-.43162-.07507-.04879-.14825-.06756-.61553-.15013a11.971,11.971,0,0,0-2.85618-.29087Z"/><path class="cls-1" d="M23.32677,27.36762c.00563.02252.02815.21956.04879.43537a1.81027,1.81027,0,0,0,.15013.73563.84658.84658,0,0,0,.54046.3603,2.01881,2.01881,0,0,0,1.156-.2402c.10322-.04317.19329-.07694.2008-.07694a.48675.48675,0,0,1,.03378.15388,1.8615,1.8615,0,0,0,.1445.52544.91381.91381,0,0,0,.52357.42787.38237.38237,0,0,1,.09008.03753c.0075.00751-.06756.03378-.1689.05818a1.77111,1.77111,0,0,1-.81257.00188,1.79912,1.79912,0,0,1-.501-.25335c-.06193-.04691-.14825-.107-.18953-.13324-.09571-.06005-.4973-.27585-.50106-.26835a.32865.32865,0,0,0-.03377.06193l-.03.06005.167.14637a3.01989,3.01989,0,0,0,.685.46915,1.54311,1.54311,0,0,0,.76.18954,2.31213,2.31213,0,0,0,1.201-.28524,8.28506,8.28506,0,0,1,.86324-.33779c.244-.08632.319-.122.26085-.122s-.867-.05629-.87075-.06005c-.00187-.00375.01314-.14262.03566-.30964l.03753-.30213.44851.22519c.24771.122.45038.22144.45414.21769.00187-.00375.02251-.03941.04316-.08257l.03941-.07694-.09759-.09383a2.70481,2.70481,0,0,0-1.13909-.7,3.79427,3.79427,0,0,0-1.46.03941c-.22144.03-.41472.05442-.43161.05066a1.53167,1.53167,0,0,1,.46539-.19516,2.54393,2.54393,0,0,1,1.52943.02064,3.4713,3.4713,0,0,1,.88763.46915c.06381.0488.11635.07882.11635.06756a2.39453,2.39453,0,0,0-.45976-.38095,2.05848,2.05848,0,0,0-.53859-.274,1.86244,1.86244,0,0,0-.81257-.11072,6.78183,6.78183,0,0,0-1.30236.18578c-.426.07882-.51606.092-.5292.06943-.0075-.015-.04691-.11634-.08632-.22894a.99193.99193,0,0,0-.08445-.2008.4628.4628,0,0,0-.02439.1445c-.00563.0807-.015.17828-.02252.21956l-.00938.07319-.37908-.37907c-.2083-.20643-.3847-.3772-.39408-.3772s-.01126.01876-.00375.04316Z"/><path class="cls-1" d="M28.89839,27.35449a.25479.25479,0,0,0-.06193.0319,2.13433,2.13433,0,0,0,.22144.46915,2.08006,2.08006,0,0,1,.37908,1.22917,2.6855,2.6855,0,0,1-.182,1.01712c-.06568.23269-.21957.81444-.33967,1.29485a4.82561,4.82561,0,0,0-.21956,1.05089,1.00668,1.00668,0,0,0,.182.59489.972.972,0,0,0,.38283.34529.48289.48289,0,0,0,.426.03565,1.13529,1.13529,0,0,0,.1689-.0563.85974.85974,0,0,0-.20643-.17077c-.35655-.25146-.45038-.35655-.5292-.593s-.06756-.23645.29651-1.68143a6.46122,6.46122,0,0,0,.3528-2.04737,1.9204,1.9204,0,0,0-.05067-.45226,2.287,2.287,0,0,0-.334-.67933,1.75148,1.75148,0,0,0-.396-.41661.29671.29671,0,0,0-.09008.02815Z"/><path class="cls-1" d="M31.14468,32.99179c-.10884.05254-.20079.10133-.20455.10509a3.08718,3.08718,0,0,0,.16326.396c.01126.01877.03.01877.08445.00188l.06756-.02064.00563-.18578.00563-.18391.28712.19141c.23082.15388.29087.18578.30589.16326a.78617.78617,0,0,0-.00376-.33028.40151.40151,0,0,0-.38282-.22519c-.12761-.00938-.137-.00563-.32841.0882Z"/><path class="cls-1" d="M29.649,35.17052a1.46658,1.46658,0,0,0-.6812.43912,10.55452,10.55452,0,0,1-.9308.76753,4.4017,4.4017,0,0,1-.69059.44851c-.17077.092-.31151.17264-.31151.17827a.73179.73179,0,0,0,.22894.13512,2.04423,2.04423,0,0,1,.46165.14074,2.492,2.492,0,0,1,.852.70185,1.616,1.616,0,0,0,.41473.39033,1.91059,1.91059,0,0,0,.54984.23646A3.33515,3.33515,0,0,0,31.52,38.59906a2.3415,2.3415,0,0,0,1.0509-.71874,2.81261,2.81261,0,0,1,.70372-.56861,1.54639,1.54639,0,0,1,.41285-.13511.4683.4683,0,0,0,.19892-.07882c.18579-.09195.22332-.04879-.30964-.349a5.36349,5.36349,0,0,1-1.41871-1.064c-.51981-.49542-.61364-.54609-.97395-.53108a1.04753,1.04753,0,0,0-.3772.07507c-.26835.09946-.29838.10133-.50668.0319a1.287,1.287,0,0,0-.65118-.09008Zm.15576,1.21979a1.01723,1.01723,0,0,1,.45226.22519l.14637.11448.14262-.00751a.26966.26966,0,0,0,.244-.09571,1.33557,1.33557,0,0,1,.24021-.15951.52773.52773,0,0,1,.33966-.06943.557.557,0,0,1,.35843.07882,1.25017,1.25017,0,0,1,.3134.22144,1.091,1.091,0,0,1,.15388.16139c0,.00938-.67933.01688-1.68331.01688H28.83084l.03565-.03941a1.61122,1.61122,0,0,1,.71123-.44663c.05255-.00938.09946-.01689.10509-.01877.00563,0,.06005.00751.122.01877Z"/><path class="cls-1" d="M30.28708,38.94811a1.106,1.106,0,0,0-.16139.07319.78347.78347,0,0,0-.23833.23832,2.364,2.364,0,0,0,.65681.01877,5.27479,5.27479,0,0,0,.65681-.01689.99067.99067,0,0,0-.33216-.27023.59761.59761,0,0,0-.31527-.0638.88966.88966,0,0,0-.26647.02065Z"/></svg>