<svg id="Layer_7" data-name="Layer 7" xmlns="http://www.w3.org/2000/svg" viewBox="0 0 31.97329 28.43408"><defs><style>.cls-1{fill:#c9a582;}</style></defs><path class="cls-1" d="M30.99213,13.756a8.0506,8.0506,0,0,0-.52294-8.57044,13.27142,13.27142,0,0,0-3.18273-3.349.64451.64451,0,0,0-.77182.02817,32.83876,32.83876,0,0,0-6.707,8.18883,34.07619,34.07619,0,0,0-4.059,8.96512c-.38548,1.64708-1.2756,2.44768-2.72088,2.44768h-.00026a5.65509,5.65509,0,0,1-2.14209-.487.64392.64392,0,0,0-.49545-.02766c-.06649.02345-.48024.16967-1.09587.38814a1.96472,1.96472,0,0,0-.056-.8506A2.29821,2.29821,0,0,0,6.9472,18.94788a3.0197,3.0197,0,0,0-.853.12449,2.85291,2.85291,0,0,0-1.55352,1.0975,2.11847,2.11847,0,0,0-.32044,1.797,2.00735,2.00735,0,0,0,.63453.9622c-1.34029.48566-2.54759.931-3.1061,1.15756a2.59469,2.59469,0,0,0,.51856,5.021c.35894.119,3.37234,1.04845,9.85369,1.04828.815,0,1.6628-.015,2.51968-.04467,4.97826-.17225,5.69243-2.73,6.44853-5.438.11194-.40086.22758-.8153.35928-1.23445.65627-2.09081,2.75172-4.436,4.04957-5.7439V28.74737a.6443.6443,0,0,0,.64433.64433h2.46022a.64442.64442,0,0,0,.64425-.65713c-.00138-.06452-.1275-6.4817-.00069-9.05584A19.94544,19.94544,0,0,1,30.99213,13.756Zm-3.03325,5.85911c-.10593,2.15249-.04166,6.76632-.01254,8.48788H26.78663V16.18757a.64431.64431,0,0,0-1.06984-.48385c-.18.15834-4.42036,3.91624-5.49794,7.34906-.13771.43883-.25618.86331-.37079,1.27379-.75859,2.717-1.21649,4.35705-5.252,4.49674-.842.02912-1.67474.0439-2.47509.0439-6.52.00017-9.43384-.97784-9.46116-.9872-.02062-.00722-.04167-.01332-.063-.01847-.013-.00309-1.29484-.33471-1.29484-1.25146a1.4837,1.4837,0,0,1,.931-1.3293c.72363-.29355,2.62173-.98419,4.44983-1.64072.13093.05318.44768.18136.47964.19519a16.3052,16.3052,0,0,0,5.87087,1.3031,7.46628,7.46628,0,0,0,3.00181-.566A5.40346,5.40346,0,0,0,19.03844,21.143a44.9129,44.9129,0,0,1,4.65893-9.60807A21.046,21.046,0,0,1,29.051,5.40227c.11538.15653.229.31907.33926.488a6.74455,6.74455,0,0,1,.45593,7.27594l-.01306.02612A20.99741,20.99741,0,0,0,27.95888,19.61515ZM10.58114,22.25089a6.85089,6.85089,0,0,0,2.4463.50412h.00035c2.04407,0,3.456-1.22259,3.9756-3.44269,1.02955-4.399,5.62165-12.39365,9.93333-16.121a12.61465,12.61465,0,0,1,1.28977,1.21512,22.79053,22.79053,0,0,0-5.6146,6.43436A46.26016,46.26016,0,0,0,17.815,20.7386a4.11289,4.11289,0,0,1-2.29518,2.65284c-2.2793,1.0024-5.4506.13058-6.992-.41117C9.45262,22.65063,10.21344,22.381,10.58114,22.25089ZM5.60305,20.89926a1.58418,1.58418,0,0,1,.85524-.59081,1.72967,1.72967,0,0,1,.48883-.072,1.03441,1.03441,0,0,1,1.05472.61675C8.14858,21.35183,7.68973,21.9447,7,22.14788a1.73148,1.73148,0,0,1-.48866.07182,1.03426,1.03426,0,0,1-1.055-.617A.84706.84706,0,0,1,5.60305,20.89926Z" transform="translate(-0.01336 -1.72179)"/></svg>