<svg id="Layer_6" data-name="Layer 6" xmlns="http://www.w3.org/2000/svg" viewBox="0 0 31.94451 31.94484"><defs><style>.cls-1{fill:#c9a582;}</style></defs><path class="cls-1" d="M30.87072,15.48766v-.65227a1.65412,1.65412,0,0,0-1.6523-1.6523h-3.916A3.86088,3.86088,0,0,0,21.9273,6.638,3.85067,3.85067,0,1,0,16,1.84449,3.85058,3.85058,0,1,0,10.073,6.638a3.86091,3.86091,0,0,0-3.37516,6.5451H2.78158a1.65412,1.65412,0,0,0-1.6523,1.6523v.65227a1.64957,1.64957,0,0,0-1.10154,1.5508V21.4446a1.6396,1.6396,0,0,0,.4296,1.10153,1.63962,1.63962,0,0,0-.4296,1.10154v4.40614A1.64955,1.64955,0,0,0,1.12928,29.6046v.65228a1.65412,1.65412,0,0,0,1.6523,1.6523H29.21842a1.65412,1.65412,0,0,0,1.6523-1.6523V29.6046a1.64955,1.64955,0,0,0,1.10154-1.55079V23.64767a1.63962,1.63962,0,0,0-.4296-1.10154,1.6396,1.6396,0,0,0,.4296-1.10153V17.03846A1.64957,1.64957,0,0,0,30.87072,15.48766ZM1.68005,28.60458a.55127.55127,0,0,1-.55077-.55077V23.64767a.55126.55126,0,0,1,.55077-.55077H6.637v5.50768ZM7.73849,16.48769H30.32a.55126.55126,0,0,1,.55077.55077V21.4446a.55127.55127,0,0,1-.55077.55077H7.73849Zm17.62456-6.05844a2.754,2.754,0,0,1-5.50768,0A2.754,2.754,0,0,1,25.36305,10.42925Zm-12.11689,0a2.754,2.754,0,0,1,5.50768,0A2.754,2.754,0,0,1,13.24616,10.42925Zm.06059,2.75384H12.084a3.87841,3.87841,0,0,0,.61136-.77835,3.87847,3.87847,0,0,0,.61162.77835ZM15.31754,6.638A3.87373,3.87373,0,0,0,16,5.79553a3.87411,3.87411,0,0,0,.68218.84268A3.718,3.718,0,0,0,15.31782,6.638Zm3.98706,5.76675a3.87887,3.87887,0,0,0,.61163.77835h-1.223A3.878,3.878,0,0,0,19.3046,12.40474Zm0-3.951a3.87382,3.87382,0,0,0-.68218-.84268,3.718,3.718,0,0,0,1.36436,0A3.87411,3.87411,0,0,0,19.3046,8.45376Zm0-7.38756a2.754,2.754,0,0,1,0,5.50768A2.754,2.754,0,0,1,19.3046,1.0662ZM9.94156,3.82a2.754,2.754,0,0,1,5.50767,0A2.754,2.754,0,0,1,9.94156,3.82ZM12.6954,7.67541a3.85194,3.85194,0,0,0,.68218-.06411,3.87349,3.87349,0,0,0-.68218.84246,3.87411,3.87411,0,0,0-.68218-.84268A3.851,3.851,0,0,0,12.6954,7.67541ZM6.637,10.42925a2.754,2.754,0,0,1,5.50768,0A2.754,2.754,0,0,1,6.637,10.42925ZM2.23081,14.83539a.55127.55127,0,0,1,.55077-.55077H29.21842a.55128.55128,0,0,1,.55077.55077v.55077H2.23081ZM1.12928,17.03846a.55126.55126,0,0,1,.55077-.55077H6.637v5.50768H1.68005a.55127.55127,0,0,1-.55077-.55077ZM29.76919,30.25688a.55127.55127,0,0,1-.55077.55076H2.78158a.55126.55126,0,0,1-.55077-.55076v-.55077H29.76919Zm1.10153-2.20307a.55127.55127,0,0,1-.55077.55077H7.73849V23.0969H30.32a.55126.55126,0,0,1,.55077.55077Z" transform="translate(-0.02774 0.03566)"/><path class="cls-1" d="M4.98465,18.69076A.55077.55077,0,1,0,4.43388,18.14.55077.55077,0,0,0,4.98465,18.69076Z" transform="translate(-0.02774 0.03566)"/><path class="cls-1" d="M9.39079,8.777a.55077.55077,0,1,0,.55077.55077A.55077.55077,0,0,0,9.39079,8.777Z" transform="translate(-0.02774 0.03566)"/><path class="cls-1" d="M9.39079,10.98a.55077.55077,0,1,0,.55077.55076A.55076.55076,0,0,0,9.39079,10.98Z" transform="translate(-0.02774 0.03566)"/><path class="cls-1" d="M17.10153,9.87848a.55077.55077,0,1,0,.55077.55077A.55076.55076,0,0,0,17.10153,9.87848Z" transform="translate(-0.02774 0.03566)"/><path class="cls-1" d="M14.89847,9.87848a.55077.55077,0,1,0,.55076.55077A.55077.55077,0,0,0,14.89847,9.87848Z" transform="translate(-0.02774 0.03566)"/><path class="cls-1" d="M13.86374,4.98838a.55077.55077,0,1,0-.77546,0A.55076.55076,0,0,0,13.86374,4.98838Z" transform="translate(-0.02774 0.03566)"/><path class="cls-1" d="M12.306,3.43059a.55078.55078,0,1,0-.77892,0A.55078.55078,0,0,0,12.306,3.43059Z" transform="translate(-0.02774 0.03566)"/><path class="cls-1" d="M4.98465,20.89383a.55077.55077,0,1,0-.55077-.55077A.55077.55077,0,0,0,4.98465,20.89383Z" transform="translate(-0.02774 0.03566)"/><path class="cls-1" d="M4.98465,25.3a.55077.55077,0,1,0-.55077-.55077A.55077.55077,0,0,0,4.98465,25.3Z" transform="translate(-0.02774 0.03566)"/><path class="cls-1" d="M4.98465,26.40151a.55077.55077,0,1,0,.55077.55076A.55076.55076,0,0,0,4.98465,26.40151Z" transform="translate(-0.02774 0.03566)"/><path class="cls-1" d="M23.77755,10.0398a.55076.55076,0,1,0-.77546,0A.55076.55076,0,0,0,23.77755,10.0398Z" transform="translate(-0.02774 0.03566)"/><path class="cls-1" d="M22.21976,11.59759a.55078.55078,0,1,0-.77892,0,.55077.55077,0,0,0,.77892,0Z" transform="translate(-0.02774 0.03566)"/></svg>