<svg id="Layer_4" data-name="Layer 4" xmlns="http://www.w3.org/2000/svg" viewBox="0 0 28.74133 32"><defs><style>.cls-1{fill:#c9a582;fill-rule:evenodd;}</style></defs><g id="Layer_7" data-name="Layer 7"><path class="cls-1" d="M11.08377,9.63005l.62016,1.45729C8.64215,12.391,6.35157,15.03681,6.35157,18.47619H4.76308c0-4.07427,2.6765-7.29541,6.32069-8.84614M24.1693,3.7068a7.83969,7.83969,0,0,0-5.3082.49409,6.3606,6.3606,0,0,0-2.35329-4.329,6.36753,6.36753,0,0,0-2.35266,4.329A7.802,7.802,0,0,0,8.84631,3.7068a5.7193,5.7193,0,0,0,.89537,3.41251A13.0171,13.0171,0,0,0,1.8421,18.79555c0,7.79974,7.13541,13.16234,14.56843,13.0753,7.29029-.08768,14.1729-5.43684,14.1729-13.0753A12.95739,12.95739,0,0,0,23.12226,7.32923,5.57,5.57,0,0,0,24.1693,3.7068ZM22.19041,5.26457c-.713,2.23618-3.57635,3.00611-5.6826,3.00611-2.105,0-4.97028-.76993-5.682-3.00611C13.32634,5.19481,14.48923,6.599,16.19357,8.096c-.23553-1.93345-.64833-3.6781.31424-5.50532.9632,1.81954.54848,3.57891.31424,5.50532C18.527,6.599,19.69055,5.19481,22.19041,5.26457Z" transform="translate(-1.8421 0.12811)"/></g></svg>