<svg id="Layer_5" data-name="Layer 5" xmlns="http://www.w3.org/2000/svg" viewBox="0 0 32 32"><defs><style>.cls-1{fill:#c9a582;}</style></defs><path class="cls-1" d="M28.69968,3.21532a11.26843,11.26843,0,0,0-15.9359,0L11.58087,4.39825A1.23076,1.23076,0,0,0,13.3214,6.13883l1.183-1.18294A8.80678,8.80678,0,0,1,26.959,17.4106l-1.18286,1.18286a1.23076,1.23076,0,1,0,1.74048,1.74064l1.183-1.183A11.26848,11.26848,0,0,0,28.69968,3.21532Z" transform="translate(0 0.08509)"/><path class="cls-1" d="M6.22392,11.49578a1.23073,1.23073,0,0,1,0,1.74053L5.041,14.41933A8.80678,8.80678,0,1,0,17.4957,26.874l1.18285-1.18286a1.23076,1.23076,0,1,1,1.74064,1.74048l-1.183,1.183A11.26834,11.26834,0,0,1,3.30041,12.67869l1.18293-1.18291A1.23079,1.23079,0,0,1,6.22392,11.49578Z" transform="translate(0 0.08509)"/><path class="cls-1" d="M20.419,11.49578a1.23069,1.23069,0,0,1,0,1.74053L13.3214,20.33394a1.23072,1.23072,0,0,1-1.74053-1.74048l7.09768-7.09768A1.23067,1.23067,0,0,1,20.419,11.49578Z" transform="translate(0 0.08509)"/></svg>