<svg id="Layer_1" data-name="Layer 1" xmlns="http://www.w3.org/2000/svg" viewBox="0 0 29.50438 32"><defs><style>.cls-1{fill:#c9a582;}</style></defs><path class="cls-1" d="M29.7547,21.60906a5.38951,5.38951,0,0,0-4.46512-2.32094h-.43107a1.60389,1.60389,0,0,1,1.48332-.99913.60294.60294,0,0,0,0-1.20588,2.79653,2.79653,0,0,0-1.87788.72238,3.21943,3.21943,0,0,0-1.91419-1.74006L22.9182,10.971h.7195a.60293.60293,0,0,0,.5925-.71469l-.74-3.92307a.603.603,0,0,0-.5925-.49119H20.20345l.73262-4.17756a.55224.55224,0,0,1,.79081-.39856l3.28376,1.64181A.60293.60293,0,1,0,25.55,1.82923L22.26614.18748A1.75811,1.75811,0,0,0,19.7482,1.45629l-.76913,4.38588H7.00988a.603.603,0,0,0-.5925.49119l-.74,3.92306a.60292.60292,0,0,0,.5925.71469h.7195l.58143,8.05251H5.06406a3.82054,3.82054,0,0,0-3.81625,3.81625v.86663a.60264.60264,0,0,0,.35438.54893,2.40186,2.40186,0,0,0,0,2.51138.60258.60258,0,0,0-.35438.54894v1.9005a2.78557,2.78557,0,0,0,2.78238,2.78244h7.25019l.00925-.00025H22.54845l-.01375-.00988c.02306-.00168.04625-.002.06931-.00418a3.40826,3.40826,0,0,0,.81919-.18025,2.14331,2.14331,0,0,1,1.05419-.09519,2.16117,2.16117,0,0,1,.37218.09494A3.3803,3.3803,0,0,0,25.978,32a3.2243,3.2243,0,0,0,1.3465-.29325,3.93339,3.93339,0,0,0,.87763-.55356l.014-.01144a3.9177,3.9177,0,0,0,1.1655-1.6705l1.03856-2.87419A5.38884,5.38884,0,0,0,29.7547,21.60906ZM23.53389,19.1038v.18432h-.18444a1.9998,1.9998,0,0,1-1.99756-1.9975v-.18438h.18443A1.99974,1.99974,0,0,1,23.53389,19.1038ZM7.55038,9.765l-.00457.00025H6.99725l.5125-2.71719h14.888l.51256,2.71719h-.5485L22.35726,9.765ZM2.45369,22.83987a2.61332,2.61332,0,0,1,2.61037-2.61038h5.18251a2.61332,2.61332,0,0,1,2.61037,2.61038v.26369H2.45369ZM12.857,29.21625a1.57836,1.57836,0,0,1-1.57657,1.57656H4.03025a1.57843,1.57843,0,0,1-1.57656-1.57656V27.91869H12.857Zm-1.20169-2.50344H3.65537a1.20169,1.20169,0,0,1,0-2.40338h8a1.20169,1.20169,0,1,1,0,2.40338Zm1.91631,4.07963a2.76608,2.76608,0,0,0,.49125-1.57632v-1.9005a.60268.60268,0,0,0-.35437-.54894,2.4019,2.4019,0,0,0,0-2.51137.6026.6026,0,0,0,.35437-.54894v-.86663a3.82054,3.82054,0,0,0-3.81625-3.81625H8.77988l-.58144-8.05244H21.7092l-.35644,4.92925h-.60369a.60289.60289,0,0,0-.60294.60294v.78737a3.19358,3.19358,0,0,0,.99044,2.31276,5.46886,5.46886,0,0,0-3.28319,6.9935l1.03875,2.87419a3.9319,3.9319,0,0,0,.80338,1.32131H13.57163Zm15.71464-4.60526-1.03863,2.87438a2.71127,2.71127,0,0,1-.79538,1.14719l-.01294.01056a2.71786,2.71786,0,0,1-.61781.39156,2.0792,2.0792,0,0,1-1.56931.05619,3.38549,3.38549,0,0,0-.58069-.14837,3.3502,3.3502,0,0,0-1.6495.14818,2.19791,2.19791,0,0,1-.52938.11663,2.04073,2.04073,0,0,1-1.0405-.17269,2.70289,2.70289,0,0,1-1.426-1.54944l-1.03875-2.87412a4.24936,4.24936,0,0,1,3.99638-5.69332h2.30587a4.24928,4.24928,0,0,1,3.99664,5.69325Z" transform="translate(-1.24781 0)"/><path class="cls-1" d="M28.10983,22.76381a3.49248,3.49248,0,0,0-.68507-.72882.603.603,0,0,0-.75006.94431,2.28219,2.28219,0,0,1,.44813.47738,2.21268,2.21268,0,0,1,.27325,2.04769l-1.0385,2.87406a.603.603,0,1,0,1.13419.40982l1.0385-2.87413A3.40438,3.40438,0,0,0,28.10983,22.76381Z" transform="translate(-1.24781 0)"/><circle class="cls-1" cx="24.04158" cy="21.90012" r="0.60294"/></svg>