<svg id="Layer_3" data-name="Layer 3" xmlns="http://www.w3.org/2000/svg" viewBox="0 0 32 31.97281"><defs><style>.cls-1{fill:#c9a582;}</style></defs><path class="cls-1" d="M32,2.201c0,1.42768-2.30014,2.17378-5.14679,2.17378s-5.14679-.7461-5.14679-2.17378S24.00656.02719,26.85321.02719,32,.7733,32,2.201Zm-2.26573-.2989a9.81115,9.81115,0,0,0-2.88106-.38162,9.81115,9.81115,0,0,0-2.88106.38162,2.77526,2.77526,0,0,0-.66736.2989,2.77545,2.77545,0,0,0,.66736.2989,9.81158,9.81158,0,0,0,2.88106.38162,9.81161,9.81161,0,0,0,2.88107-.38162,2.77563,2.77563,0,0,0,.66736-.2989,2.77563,2.77563,0,0,0-.66736-.2989Zm-.77242,9.27245a8.20653,8.20653,0,0,1-4.25144,0,1.83729,1.83729,0,0,1-.47731-.21629.74671.74671,0,0,0-1.47555.1623c0,1.23647,1.82166,1.82734,4.07838,1.82734,2.257,0,4.07875-.59083,4.07875-1.82734a.74671.74671,0,0,0-1.47555-.1623,1.83574,1.83574,0,0,1-.47732.21629Z" transform="translate(0 -0.02719)"/><path class="cls-1" d="M24.24517,10.95441,23.20738,2.31607a.74662.74662,0,1,0-1.48258.17812l1.03778,8.63834a.74663.74663,0,0,0,1.48259-.17812Zm6.24436-8.63856-1.04,8.63834a.74661.74661,0,0,0,1.48251.17849L31.972,2.49434a.74661.74661,0,0,0-1.48251-.17849ZM28.65132,22.10514c0-4.55191-6.0284-8.40164-13.579-8.40164s-13.579,3.84973-13.579,8.40164,6.0284,8.40163,13.579,8.40163S28.65132,26.657,28.65132,22.10514Zm1.49323,0C30.14455,27.658,23.34525,32,15.07227,32S0,27.658,0,22.10514s6.79929-9.89486,15.07227-9.89486S30.14455,16.5523,30.14455,22.10514Z" transform="translate(0 -0.02719)"/><path class="cls-1" d="M24.55825,21.966c0-2.73262-4.19245-5.14752-9.48612-5.14752-5.29334,0-9.48572,2.41494-9.48572,5.14752s4.19241,5.14752,9.48572,5.14752C20.36576,27.11347,24.55825,24.69856,24.55825,21.966Zm1.49323,0c0,3.77791-4.97009,6.64075-10.97935,6.64075-6.00893,0-10.97895-2.86287-10.97895-6.64075s4.97-6.64075,10.979-6.64075C21.08139,15.3252,26.05148,18.188,26.05148,21.966Z" transform="translate(0 -0.02719)"/><path class="cls-1" d="M11.15306,27.02462a14.64073,14.64073,0,0,1,8.29314-9.74728.74662.74662,0,0,0-.59933-1.36768,16.13391,16.13391,0,0,0-9.1403,10.74428.74662.74662,0,1,0,1.44649.37068Z" transform="translate(0 -0.02719)"/><path class="cls-1" d="M14.27557,19.41652a16.17053,16.17053,0,0,0-8.72981-.26543.74661.74661,0,0,0,.35967,1.44926,14.67731,14.67731,0,0,1,7.92268.24076.74661.74661,0,0,0,.4475-1.42459Z" transform="translate(0 -0.02719)"/></svg>