<svg id="Layer_11" data-name="Layer 11" xmlns="http://www.w3.org/2000/svg" viewBox="0 0 25.51596 25.51596"><defs><style>.cls-1{fill:none;stroke:#c9a582;stroke-linecap:round;stroke-linejoin:round;stroke-width:0.75px;}</style></defs><path id="c" class="cls-1" d="M27.23577,3.617H5.14721a1.33868,1.33868,0,0,0-1.3387,1.3387V27.04428a1.33868,1.33868,0,0,0,1.3387,1.3387H27.23577a1.33868,1.33868,0,0,0,1.3387-1.3387V4.95572A1.33868,1.33868,0,0,0,27.23577,3.617Z" transform="translate(-3.43351 -3.24202)"/><path id="d" class="cls-1" d="M13.76376,7.63346H24.80937v3.34675H13.76376Z" transform="translate(-3.43351 -3.24202)"/><path id="e" class="cls-1" d="M13.76376,14.32662H24.80937v3.34676H13.76376Z" transform="translate(-3.43351 -3.24202)"/><path id="f" class="cls-1" d="M13.76376,21.01979H24.80937v3.34675H13.76376Z" transform="translate(-3.43351 -3.24202)"/><rect class="cls-1" x="4.14009" y="4.39144" width="3.34675" height="3.34675"/><rect class="cls-1" x="4.14009" y="11.0846" width="3.34675" height="3.34675"/><rect class="cls-1" x="4.14009" y="17.77777" width="3.34675" height="3.34675"/></svg>