<svg id="Layer_10" data-name="Layer 10" xmlns="http://www.w3.org/2000/svg" viewBox="0 0 31.97203 32"><defs><style>.cls-1{fill:#c9a582;}</style></defs><path class="cls-1" d="M23.30515,26.09454l-6.2901-3.48474c2.33781-1.83927,2.97321-5.45388,2.97321-7.481v-4.219c0-2.79338-3.71152-5.90446-7.44-5.90446-3.72651,0-7.53694,3.11108-7.53694,5.90446v4.219c0,1.84327.77927,5.57077,3.14106,7.465L1.70041,26.09354S.014,26.84483.014,27.781v2.53162A1.6876,1.6876,0,0,0,1.70041,32H23.30515a1.68824,1.68824,0,0,0,1.68642-1.68742V27.781c0-.99307-1.68742-1.68742-1.68742-1.68742Zm-.31171,3.90933H2.01211V28.21755a3.15659,3.15659,0,0,1,.50153-.29772,1.50179,1.50179,0,0,0,.13887-.06994l6.453-3.49972a1.99735,1.99735,0,0,0,.29772-3.31489c-1.67542-1.34374-2.39375-4.31795-2.39375-5.90546V10.91077c0-1.43565,2.70546-3.90634,5.53881-3.90634,2.88629,0,5.4419,2.43772,5.4419,3.90634v4.21905c0,1.56453-.48555,4.55273-2.20993,5.90946a1.99819,1.99819,0,0,0,.27774,3.32488l6.2901,3.48474c.05495.03.12588.06294.18383.08891a2.869,2.869,0,0,1,.46156.25876v1.80731ZM30.2976,21.1202l-6.384-3.48473c2.33781-1.83928,3.06713-5.45389,3.06713-7.481v-4.219C26.98071,3.142,23.17627,0,19.44777,0a8.80384,8.80384,0,0,0-6.34106,3.00418,10.59633,10.59633,0,0,1,2.51165.30172,6.21011,6.21011,0,0,1,3.82941-1.30677c2.88629,0,5.53481,2.46768,5.53481,3.9373v4.21905c0,1.56453-.57946,4.55273-2.30284,5.90946a1.9982,1.9982,0,0,0,.27774,3.32489l6.384,3.48473c.05495.03.12588.06294.18383.08892a2.86878,2.86878,0,0,1,.46157.25876v1.77733H25.95367a3.29645,3.29645,0,0,1,1.03,1.99813h3.31589A1.68825,1.68825,0,0,0,31.986,25.31028V22.80962c-.001-.99407-1.68741-1.68941-1.68741-1.68941Z" transform="translate(-0.01399)"/></svg>