<svg id="Layer_9" data-name="Layer 9" xmlns="http://www.w3.org/2000/svg" viewBox="0 0 31.78847 32"><defs><style>.cls-1{fill:#e4ccb5;}</style></defs><path class="cls-1" d="M28.48214,12.48227A6.80851,6.80851,0,0,1,27.1386,24.87376,9.08029,9.08029,0,0,1,18.26938,32H14.86512a1.13475,1.13475,0,1,1,0-2.2695h3.40426a6.81078,6.81078,0,0,0,6.42269-4.539h-.74894a1.13476,1.13476,0,0,1-1.13475-1.13475V12.70922a1.13475,1.13475,0,0,1,1.13475-1.13475h1.13476a6.83047,6.83047,0,0,1,1.08255.08624,10.21277,10.21277,0,0,0-20.32114,0,6.85234,6.85234,0,0,1,1.08256-.08624H8.05661a1.13474,1.13474,0,0,1,1.13475,1.13475V24.05674a1.13475,1.13475,0,0,1-1.13475,1.13475H6.92186A6.80851,6.80851,0,0,1,3.5176,12.48227a12.48227,12.48227,0,0,1,24.96454,0ZM6.92186,13.844a4.539,4.539,0,0,0,0,9.078Zm22.695,4.539a4.539,4.539,0,0,0-4.539-4.539v9.078A4.539,4.539,0,0,0,29.61689,18.383Z" transform="translate(-0.10577)"/></svg>